<svg xmlns="http://www.w3.org/2000/svg" width="20" height="20" viewBox="0 0 20 20" fill="none"><g clip-path="url(#clip0_512_18111)"><path d="M10.8336 1.70917V0.833333C10.8336 0.61232 10.7458 0.400358 10.5895 0.244078C10.4333 0.0877974 10.2213 0 10.0003 0C9.77927 0 9.56731 0.0877974 9.41103 0.244078C9.25475 0.400358 9.16696 0.61232 9.16696 0.833333V1.70917C7.48926 1.85957 5.88564 2.47017 4.53278 3.47368C3.17991 4.4772 2.13031 5.83468 1.49961 7.39657C0.868908 8.95845 0.681587 10.6641 0.958284 12.3257C1.23498 13.9872 1.96496 15.5401 3.06779 16.8133C2.63226 17.0288 2.26831 17.3656 2.01978 17.7831C1.77124 18.2006 1.64871 18.6811 1.66696 19.1667C1.66696 19.3877 1.75475 19.5996 1.91103 19.7559C2.06731 19.9122 2.27928 20 2.50029 20C2.7213 20 2.93326 19.9122 3.08954 19.7559C3.24583 19.5996 3.33362 19.3877 3.33362 19.1667C3.3267 18.9098 3.41891 18.6601 3.59114 18.4694C3.76336 18.2788 4.00239 18.1617 4.25862 18.1425C4.31594 18.1316 4.37185 18.1143 4.42529 18.0908C6.02157 19.3289 7.98432 20.0009 10.0045 20.0009C12.0246 20.0009 13.9873 19.3289 15.5836 18.0908C15.6324 18.1133 15.6832 18.1312 15.7353 18.1442C15.9924 18.1617 16.2329 18.2778 16.4064 18.4683C16.58 18.6588 16.6734 18.909 16.667 19.1667C16.667 19.3877 16.7548 19.5996 16.911 19.7559C17.0673 19.9122 17.2793 20 17.5003 20C17.7213 20 17.9333 19.9122 18.0895 19.7559C18.2458 19.5996 18.3336 19.3877 18.3336 19.1667C18.3519 18.6811 18.2293 18.2006 17.9808 17.7831C17.7323 17.3656 17.3683 17.0288 16.9328 16.8133C18.0356 15.5401 18.7656 13.9872 19.0423 12.3257C19.319 10.6641 19.1317 8.95845 18.501 7.39657C17.8703 5.83468 16.8207 4.4772 15.4678 3.47368C14.1149 2.47017 12.5113 1.85957 10.8336 1.70917ZM2.50029 10.8333C2.50029 9.34997 2.94016 7.89993 3.76427 6.66656C4.58838 5.43319 5.75972 4.47189 7.13016 3.90424C8.50061 3.33658 10.0086 3.18805 11.4635 3.47744C12.9183 3.76683 14.2547 4.48114 15.3036 5.53003C16.3525 6.57893 17.0668 7.9153 17.3562 9.37016C17.6456 10.825 17.497 12.333 16.9294 13.7035C16.3617 15.0739 15.4004 16.2452 14.1671 17.0694C12.9337 17.8935 11.4836 18.3333 10.0003 18.3333C8.01191 18.3309 6.10567 17.54 4.69967 16.134C3.29367 14.728 2.50271 12.8217 2.50029 10.8333Z" fill="#FEFEFE"></path><path d="M16.012 -3.84643e-05C15.791 -3.84643e-05 15.5791 0.0877589 15.4228 0.244039C15.2665 0.400319 15.1787 0.612281 15.1787 0.833295C15.1787 1.05431 15.2665 1.26627 15.4228 1.42255C15.5791 1.57883 15.791 1.66663 16.012 1.66663C16.3026 1.64454 16.5947 1.68153 16.8706 1.77536C17.1465 1.8692 17.4005 2.01794 17.6174 2.21261C17.8343 2.40729 18.0095 2.64387 18.1324 2.90808C18.2554 3.1723 18.3236 3.45868 18.3329 3.74996C18.3329 3.97097 18.4207 4.18294 18.577 4.33922C18.7332 4.4955 18.9452 4.58329 19.1662 4.58329C19.3872 4.58329 19.5992 4.4955 19.7555 4.33922C19.9117 4.18294 19.9995 3.97097 19.9995 3.74996C19.9889 3.24037 19.8767 2.73803 19.6696 2.27232C19.4624 1.80661 19.1645 1.38688 18.7932 1.0377C18.4219 0.688514 17.9847 0.416884 17.5071 0.238698C17.0296 0.0605129 16.5213 -0.0206488 16.012 -3.84643e-05Z" fill="#FEFEFE"></path><path d="M1.66667 3.74996C1.67596 3.45868 1.74414 3.1723 1.8671 2.90808C1.99006 2.64387 2.16526 2.40729 2.38213 2.21261C2.59899 2.01794 2.85304 1.8692 3.12895 1.77536C3.40486 1.68153 3.69691 1.64454 3.9875 1.66663C4.20851 1.66663 4.42048 1.57883 4.57676 1.42255C4.73304 1.26627 4.82083 1.05431 4.82083 0.833295C4.82083 0.612281 4.73304 0.400319 4.57676 0.244039C4.42048 0.0877589 4.20851 -3.84643e-05 3.9875 -3.84643e-05C3.47822 -0.0206488 2.96994 0.0605129 2.4924 0.238698C2.01486 0.416884 1.57765 0.688514 1.20636 1.0377C0.835056 1.38688 0.537122 1.80661 0.329984 2.27232C0.122846 2.73803 0.0106635 3.24037 0 3.74996C0 3.97097 0.0877974 4.18294 0.244078 4.33922C0.400358 4.4955 0.61232 4.58329 0.833333 4.58329C1.05435 4.58329 1.26631 4.4955 1.42259 4.33922C1.57887 4.18294 1.66667 3.97097 1.66667 3.74996Z" fill="#FEFEFE"></path><path d="M10.8337 9.655V5.83333C10.8337 5.61232 10.7459 5.40036 10.5896 5.24408C10.4333 5.0878 10.2213 5 10.0003 5C9.77931 5 9.56735 5.0878 9.41107 5.24408C9.25479 5.40036 9.16699 5.61232 9.16699 5.83333V10C9.16704 10.221 9.25487 10.4329 9.41116 10.5892L11.9112 13.0892C12.0683 13.241 12.2788 13.325 12.4973 13.3231C12.7158 13.3212 12.9248 13.2335 13.0793 13.079C13.2338 12.9245 13.3215 12.7155 13.3234 12.497C13.3253 12.2785 13.2413 12.068 13.0895 11.9108L10.8337 9.655Z" fill="#FEFEFE"></path></g><defs><clipPath id="clip0_512_18111"><rect width="20" height="20" fill="white"></rect></clipPath></defs></svg>