<svg xmlns="http://www.w3.org/2000/svg" width="148" height="88" viewBox="0 0 148 88" fill="none"><rect width="148" height="88" fill="#28E1B9"></rect><g clip-path="url(#clip0_512_12782)"><path fill-rule="evenodd" clip-rule="evenodd" d="M60.4025 39.8819V50.4932H57.693V46.0215L57.8105 43.2561L52.8795 50.4932H49.7641V39.8819H52.4736V44.3537L52.3561 47.1191L57.2871 39.8815L60.4025 39.8819ZM89.2028 45.1906C89.2028 48.3376 86.7155 50.7115 83.4209 50.7124C80.1264 50.7134 77.6351 48.3361 77.6351 45.1878C77.6165 44.4699 77.7522 43.7558 78.0344 43.0874C78.3166 42.4189 78.7395 41.8095 79.2783 41.2949C79.8171 40.7804 80.461 40.3709 81.1723 40.0906C81.8836 39.8104 82.6479 39.6649 83.4204 39.6627C84.1928 39.6657 84.9567 39.8119 85.6675 40.0928C86.3784 40.3736 87.0218 40.7834 87.5601 41.2981C88.0985 41.8129 88.521 42.4223 88.8028 43.0906C89.0847 43.759 89.2203 44.4729 89.2018 45.1906H89.2028ZM80.3643 45.1906C80.3423 46.0068 80.661 46.7992 81.2536 47.4018C81.5335 47.6729 81.8701 47.888 82.2427 48.0336C82.6154 48.1792 83.0162 48.2524 83.4204 48.2486C85.192 48.2486 86.4731 46.9647 86.4741 45.1953C86.4947 44.3794 86.1762 43.5874 85.5848 42.9842C85.3059 42.7132 84.9703 42.4982 84.5985 42.3525C84.2268 42.2069 83.8269 42.1336 83.4235 42.1373H83.4144C83.018 42.133 82.6248 42.2028 82.258 42.3425C81.8913 42.4823 81.5585 42.6891 81.2794 42.9508C80.6694 43.5551 80.3402 44.3585 80.3633 45.1869L80.3643 45.1906ZM139.594 46.6994C139.594 49.0409 137.845 50.4956 135.283 50.4956H129.984V39.8819H132.687V43.0491H135.359C137.951 43.0486 139.593 44.3786 139.593 46.6975L139.594 46.6994ZM132.688 48.0223H135.2C136.245 48.0223 136.871 47.6267 136.871 46.6994C136.871 45.7585 136.263 45.3765 135.22 45.3765H132.686V48.0223H132.688ZM72.5462 39.8833L69.5654 45.4155L66.6039 39.8833H63.2451V50.4932H65.9479V46.0059L65.787 43.3295L68.2221 47.8671H70.925L73.3606 43.3295L73.1991 46.0158V50.4932H75.902V39.8819H72.5452L72.5462 39.8833ZM102.218 45.192C102.218 48.339 99.7298 50.7129 96.4352 50.7139C93.1407 50.7148 90.6504 48.3376 90.6504 45.1892C90.6271 44.031 91.0019 42.896 91.7203 41.9494C92.4387 41.0028 93.4633 40.2939 94.645 39.9257L90.9768 37.4581V34.9999H102.023V37.4096H97.4455L94.7285 37.3405C94.7285 37.3405 96.7607 38.6488 97.812 39.292C99.0743 40.0649 102.217 41.6683 102.217 45.1906L102.218 45.192ZM99.4894 45.192C99.5103 44.376 99.1917 43.584 98.6001 42.9809C98.3212 42.7099 97.9856 42.4949 97.6138 42.3492C97.2421 42.2036 96.8422 42.1303 96.4388 42.134H96.4286C96.0319 42.1303 95.6385 42.2009 95.2717 42.3414C94.9049 42.482 94.5723 42.6897 94.2937 42.9522C93.684 43.5566 93.3549 44.36 93.3775 45.1883C93.3559 46.0044 93.6745 46.7967 94.2669 47.3994C94.5467 47.6706 94.8834 47.8856 95.256 48.0312C95.6287 48.1769 96.0295 48.2501 96.4337 48.2463C98.2037 48.243 99.4878 46.9596 99.4884 45.1902L99.4894 45.192ZM35.3716 45.5853L35.3306 45.9617H26.7148C26.8147 46.6589 27.1872 47.2976 27.7611 47.756C28.3351 48.2143 29.0705 48.4604 29.8271 48.4472C30.4164 48.4855 31.005 48.3632 31.5207 48.0953C32.0364 47.8274 32.4568 47.4255 32.7304 46.9389L34.9535 48.0619C34.2794 49.0907 33.2619 49.8866 32.0561 50.3282C30.8503 50.7697 29.5222 50.8328 28.2743 50.5078C27.0263 50.1827 25.9269 49.4874 25.1435 48.5277C24.3601 47.5681 23.9357 46.3967 23.935 45.192C23.935 42.0446 26.3139 39.6646 29.6697 39.6646C33.0255 39.6646 35.0557 41.6833 35.3746 44.4656C35.4192 44.8378 35.4182 45.2134 35.3716 45.5853ZM32.6054 43.9764C32.4709 43.3699 32.1108 42.8268 31.5884 42.4425C31.066 42.0582 30.4146 41.8572 29.7487 41.8748C29.0846 41.8643 28.4371 42.068 27.9163 42.4511C27.3955 42.8342 27.0335 43.3732 26.8919 43.9764H32.6054ZM39.07 39.8833C39.07 39.8833 38.0663 46.3658 37.9403 46.9638C37.7773 47.7401 37.5308 48.0153 36.4725 48.0153H36.0903V50.5868H36.4735C38.7426 50.5868 40.1684 49.5081 40.5976 47.4672C40.7039 46.9614 41.0395 44.3217 41.3852 42.3434H44.2161V50.4932H46.9215V39.8819H39.07V39.8833ZM119.326 39.8833C119.326 39.8833 118.321 46.3673 118.196 46.9657C118.032 47.7419 117.786 48.0172 116.728 48.0172H116.345V50.5887H116.728C118.997 50.5887 120.423 49.5099 120.852 47.4691C120.958 46.9633 121.294 44.3236 121.64 42.3453H124.47V50.4932H127.175V39.8819H119.326V39.8833ZM23.0993 48.02V52.8705H20.3898V50.4937L11.7143 50.4993V52.8714H9.00488V48.0209H11.277C11.5524 46.5879 12.7788 39.8819 12.7788 39.8819H20.9719V48.0209H23.0978L23.0993 48.02ZM14.0265 48.02H18.266V42.3439H15.0934L14.0265 48.02ZM111.61 39.881L106.679 47.1191L106.796 44.3537V39.8819H104.087V50.4932H107.202L112.133 43.2561L112.018 46.0215V50.4932H114.728V39.8819H111.612L111.61 39.881Z" fill="black"></path></g><defs><clipPath id="clip0_512_12782"><rect width="130.588" height="17.8776" fill="white" transform="translate(9 34.9999)"></rect></clipPath></defs></svg>