<svg xmlns="http://www.w3.org/2000/svg" width="148" height="88" viewBox="0 0 148 88" fill="none"><g clip-path="url(#clip0_512_12798)"><path d="M0.00488281 0H161.064V89.0115H0.00488281V0Z" fill="#FFCB01"></path><path d="M27.4021 34.8964L22.8193 40.6996H47.7962C49.0592 40.6996 49.0435 41.1429 48.4262 41.9266C47.7994 42.7192 46.7505 44.09 46.1112 44.8972C45.7867 45.3052 45.2009 46.0479 47.1411 46.0479H57.3555L60.3823 42.2143C62.2595 39.8396 60.5461 34.8993 53.8341 34.8993L27.4021 34.8964Z" fill="#D80613"></path><path d="M20.9645 53.8032L30.171 42.1438H41.5949C42.8579 42.1438 42.8422 42.59 42.2248 43.3708L39.8941 46.3297C39.5697 46.7377 38.9838 47.4804 40.924 47.4804H56.2251C54.9558 49.1066 50.8234 53.8032 43.4154 53.8032H20.9645ZM73.6838 47.4774L68.6915 53.8032H55.5228L60.515 47.4774H73.6838ZM93.8543 46.045H61.6489L70.4553 34.8964H83.6178L78.572 41.2896H84.4462L89.4983 34.8964H102.661L93.8543 46.045ZM92.7235 47.4774L87.7313 53.8032H74.5688L79.561 47.4774H92.7235ZM2.17676 49.9725H21.5724L20.5141 51.314H2.17676V49.9725ZM2.17676 47.4774H23.5441L22.4827 48.8189H2.17676V47.4774ZM2.17676 52.4676H19.6039L18.5488 53.8032H2.17676V52.4676ZM145.622 51.314H126.296L127.357 49.9725H145.622V51.314ZM145.622 53.8032H124.334L125.386 52.4676H145.622V53.8032ZM129.326 47.4774H145.622V48.8218H128.268L129.326 47.4774ZM120.891 34.8964L112.085 46.045H98.1347L106.947 34.8964H120.891ZM97.0071 47.4774C97.0071 47.4774 96.0464 48.7044 95.5771 49.2915C93.9267 51.3756 95.385 53.8003 100.78 53.8003H121.921L126.913 47.4774H97.0071Z" fill="#D80613"></path></g><defs><clipPath id="clip0_512_12798"><rect width="148" height="88" fill="white"></rect></clipPath></defs></svg>