<svg width="116" height="87" viewBox="0 0 116 87" fill="none" xmlns="http://www.w3.org/2000/svg">
<path d="M25.0443 16.76V11H27.3843V25H25.0443V18.84H18.9643V25H16.6243V11H18.9643V16.76H25.0443ZM34.1835 14.32C37.0035 14.32 38.3635 15.7 38.3635 18.38V25H36.3635L36.3835 23.54H36.2435C35.5835 24.56 34.6235 25.26 33.1035 25.26C31.1435 25.26 29.8835 24.02 29.8835 22.14C29.8835 20.14 31.3235 18.86 34.4435 18.54L36.1635 18.36C36.1235 16.92 35.4435 16.2 33.9635 16.2C32.9235 16.2 31.8035 16.46 30.8835 16.94V14.96C31.6035 14.64 32.8235 14.32 34.1835 14.32ZM33.7435 23.42C34.9435 23.42 36.1635 22.56 36.1635 20.46V19.94L34.5235 20.1C32.8635 20.28 32.1435 20.9 32.1435 21.9C32.1435 22.84 32.7435 23.42 33.7435 23.42ZM54.316 14.56L51.116 19.5L54.816 25H52.356L49.496 20.56H48.196L48.296 22.02V25H46.136V22.02L46.236 20.56H44.936L42.076 25H39.616L43.316 19.5L40.116 14.56H42.416L44.956 18.72H46.236L46.136 17.42V14.56H48.296V17.42L48.196 18.72H49.476L52.016 14.56H54.316ZM58.4215 25H56.3615V14.56H59.3815L62.2415 22.66H62.3615L65.2415 14.56H68.1815V25H66.1215V17.18H65.9815L63.1615 25H61.3615L58.5615 17.18H58.4215V25ZM73.4937 25H70.8537V14.56H72.9737V22.36H73.1137L77.2337 14.56H79.8737V25H77.7537V17.22H77.6137L73.4937 25ZM86.9529 25H84.7529V16.54H81.5729V14.56H90.1329V16.54H86.9529V25ZM100.455 19.54C100.455 19.84 100.415 20.1 100.375 20.32H93.2949C93.4749 22.28 94.5349 23.36 96.6149 23.36C97.7749 23.36 98.8549 23.04 99.7349 22.56V24.58C98.8549 24.96 97.7749 25.26 96.4549 25.26C92.8949 25.26 90.9949 23.18 90.9949 19.78C90.9949 16.5 92.8949 14.32 95.8349 14.32C98.7349 14.32 100.455 16.26 100.455 19.54ZM95.8349 16.08C94.4749 16.08 93.5949 17.02 93.3349 18.7H98.2349C98.0349 17.04 97.2549 16.08 95.8349 16.08Z" fill="white" fill-opacity="0.9"/>
<g clip-path="url(#clip0_1926_4103)">
<path d="M58.0005 60.633V52.178C58.0159 50.9727 57.6069 49.8004 56.8452 48.8662C56.0835 47.9321 55.0175 47.2955 53.8338 47.068C53.1167 46.9468 52.3818 46.9835 51.6804 47.1755C50.9789 47.3675 50.3278 47.7102 49.7724 48.1798C49.217 48.6493 48.7707 49.2343 48.4647 49.8941C48.1587 50.5538 48.0002 51.2724 48.0005 51.9996V64.6346L41.1321 71.393C40.1948 72.3306 39.6682 73.6022 39.6682 74.928C39.6682 76.2538 40.1948 77.5253 41.1321 78.463L49.6671 86.9996H74.6671V63.9663L58.0005 60.633ZM71.3338 83.6663H51.0471L43.4888 76.1063C43.1781 75.7955 43.0027 75.3745 43.0008 74.935C42.9989 74.4955 43.1707 74.0731 43.4788 73.7596L48.0005 69.3113V75.333H51.3338V51.9996C51.3335 51.7559 51.3866 51.515 51.4894 51.294C51.5923 51.073 51.7424 50.8772 51.9291 50.7206C52.1159 50.5639 52.3347 50.45 52.5702 50.3871C52.8057 50.3242 53.0521 50.3137 53.2921 50.3563C53.6958 50.4557 54.0529 50.691 54.3033 51.0228C54.5538 51.3546 54.6823 51.7626 54.6671 52.178V63.3663L71.3338 66.6996V83.6663Z" fill="white" fill-opacity="0.9"/>
</g>
<defs>
<clipPath id="clip0_1926_4103">
<rect width="40" height="40" fill="white" transform="translate(38 47)"/>
</clipPath>
</defs>
</svg>
