<svg xmlns="http://www.w3.org/2000/svg" width="148" height="88" viewBox="0 0 148 88" fill="none"><rect width="148" height="88" fill="#0259FF"></rect><g clip-path="url(#clip0_512_12778)"><path d="M27.9768 50.9794C31.0795 50.586 33.5859 48.0796 33.9818 44.9744C34.12 43.9146 34.0129 42.8372 33.6687 41.8253C33.3246 40.8135 32.7525 39.8942 31.9968 39.1384C31.241 38.3827 30.3217 37.8106 29.3099 37.4665C28.298 37.1223 27.2206 37.0152 26.1608 37.1534C23.0556 37.5493 20.5492 40.0557 20.1558 43.1583C20.0176 44.2182 20.1247 45.2956 20.4689 46.3075C20.813 47.3193 21.3851 48.2386 22.1408 48.9944C22.8966 49.7501 23.8159 50.3221 24.8277 50.6663C25.8396 51.0105 26.917 51.1176 27.9768 50.9794ZM28.3999 31.0668C31.3871 31.3813 34.1757 32.7117 36.2996 34.8356C38.4235 36.9595 39.7539 39.7481 40.0684 42.7353C40.8874 50.9992 33.9991 57.8874 25.7327 57.0685C22.746 56.7535 19.9579 55.4228 17.8345 53.299C15.7111 51.1751 14.3811 48.3868 14.0667 45.4C13.2478 37.1361 20.136 30.2478 28.3999 31.0668ZM47.0803 31.5839H66.2086C66.936 31.5839 67.3467 32.4153 66.9088 32.9942L53.6742 50.4548H64.0436C65.934 50.4548 67.421 52.1744 67.03 54.134C66.743 55.5715 65.3946 56.5513 63.9298 56.5513H43.1562C42.4362 56.5513 42.028 55.7274 42.461 55.1559L55.7055 37.6804H47.1942C45.7294 37.6804 44.381 36.6981 44.094 35.2631C43.7006 33.3035 45.19 31.5839 47.0803 31.5839ZM130.093 31.6532C132.068 31.2375 133.804 32.732 133.804 34.6322V55.6705C133.804 56.4054 132.956 56.8136 132.382 56.3584L115.881 43.2672V53.508C115.881 55.4082 114.144 56.9027 112.17 56.487C110.755 56.1901 109.785 54.8713 109.785 53.4264V32.4623C109.785 31.7274 110.633 31.3192 111.207 31.7744L127.71 44.8656V34.7138C127.71 33.2689 128.683 31.9526 130.096 31.6532H130.093ZM87.1282 31C97.2305 31 105.42 36.8491 105.42 44.0639C105.42 51.2788 97.2305 57.1278 87.1282 57.1278C77.0259 57.1278 68.8362 51.2788 68.8362 44.0639C68.8362 36.8491 77.0259 31 87.1282 31ZM87.1282 37.0965C80.1484 37.0965 74.9327 40.7757 74.9327 44.0639C74.9327 47.3522 80.1484 51.0313 87.1282 51.0313C94.108 51.0313 99.3236 47.3546 99.3236 44.0639C99.3236 40.7732 94.108 37.0965 87.1282 37.0965Z" fill="#FEFEFE"></path></g><defs><clipPath id="clip0_512_12778"><rect width="120" height="26.2268" fill="white" transform="translate(14 31)"></rect></clipPath></defs></svg>