<svg xmlns="http://www.w3.org/2000/svg" width="148" height="88" viewBox="0 0 148 88" fill="none"><rect width="148" height="88" fill="#FFEE00"></rect><g clip-path="url(#clip0_512_12774)"><path d="M123.119 54.1796C119.449 54.1796 118.744 51.0159 120.945 46.6658C123.091 42.2875 127.099 39.0955 130.628 39.0955C134.185 39.0955 134.975 42.231 132.773 46.6658C130.628 51.0441 126.902 54.1796 123.119 54.1796ZM118.546 35.7341C119.986 35.7341 119.591 39.0955 117.727 42.4287H121.623C125.857 33.4743 122.639 29.9999 118.998 29.9999C113.098 29.9999 106.464 35.9601 102.287 43.6151C97.9111 51.6373 98.4193 57.8517 104.037 57.8517C110.416 57.8517 116.598 52.1175 120.974 44.0953H112.647L111.009 46.7505H116.485L116.683 44.3495C114.001 49.0386 110.896 52.0893 109.146 52.0893C107.424 52.0893 108.102 48.6148 110.783 43.9258C113.493 39.2085 116.683 35.7341 118.546 35.7341ZM129.442 46.6375C130.854 44.2648 131.023 42.5699 130.176 42.5699C129.245 42.5699 127.748 44.3213 126.365 46.6375C124.926 48.9821 124.756 50.6769 125.631 50.6769C126.563 50.6769 128.059 48.9256 129.442 46.6375ZM40.1196 44.0126V50.2223C40.1196 51.3702 40.1761 52.5274 40.2889 53.6941H37.0169C36.8852 53.3554 36.8006 52.979 36.763 52.5651H36.622C36.3023 52.9038 35.8886 53.2142 35.3809 53.4965C34.892 53.7599 34.1492 53.8917 33.1525 53.8917C31.855 53.8917 30.802 53.5059 29.9934 52.7344C29.2036 51.9441 28.8087 50.8339 28.8087 49.4038C28.8087 47.9548 29.401 46.8352 30.5857 46.0449C31.7892 45.2357 33.6697 44.8312 36.2271 44.8312H36.763V44.0408C36.763 43.2693 36.575 42.733 36.1989 42.432C35.8228 42.1121 35.2304 41.9521 34.4218 41.9521C33.8577 41.9521 33.2748 42.0274 32.673 42.1779C32.0713 42.3097 31.5165 42.4884 31.0088 42.7142C30.5199 42.9212 30.125 43.1376 29.8241 43.3634V40.569C30.3318 40.268 31.0088 39.9763 31.855 39.694C32.72 39.4118 33.7073 39.2707 34.8167 39.2707C36.6032 39.2707 37.9289 39.6282 38.7939 40.3433C39.6777 41.0583 40.1196 42.2814 40.1196 44.0126ZM36.763 50.307V47.2304H36.2835C34.8543 47.2304 33.8201 47.3997 33.1807 47.7384C32.5602 48.0583 32.2499 48.6228 32.2499 49.432C32.2499 50.0341 32.4286 50.5234 32.7858 50.8997C33.1431 51.2572 33.6697 51.436 34.3654 51.436C34.9672 51.436 35.4655 51.3231 35.8604 51.0973C36.2553 50.8715 36.5562 50.6081 36.763 50.307ZM46.2124 43.5045V53.6941H42.8557V39.4965H46.1277L46.2124 40.682H46.3816C46.72 40.3432 47.1997 40.0233 47.8201 39.7223C48.4406 39.4212 49.2492 39.2707 50.2459 39.2707C51.6187 39.2707 52.6059 39.6 53.2077 40.2586C53.8095 40.8983 54.1102 41.9239 54.1102 43.3352V53.6941H50.7538V43.6739C50.7538 42.6201 50.1801 42.0932 49.0332 42.0932C48.4314 42.0932 47.8859 42.2344 47.397 42.5166C46.9268 42.7989 46.5322 43.1282 46.2124 43.5045ZM61.7262 53.9764C60.1467 53.9764 58.8584 53.346 57.8619 52.0852C56.8652 50.8245 56.3668 49.0274 56.3668 46.6941C56.3668 44.3231 56.8747 42.4884 57.8901 41.19C58.9241 39.8728 60.2501 39.2142 61.8673 39.2142C63.3716 39.2142 64.5561 39.8634 65.4213 41.1618V34.0771H68.7778V53.6941H65.6753L65.5058 51.8594C64.6033 53.2707 63.3434 53.9764 61.7262 53.9764ZM62.7135 41.8674C61.7544 41.8674 61.0305 42.2532 60.5416 43.0247C60.0714 43.7962 59.8364 45.0193 59.8364 46.6941C59.8364 48.2935 60.0619 49.4696 60.5132 50.2223C60.9647 50.9562 61.651 51.3231 62.5724 51.3231C63.5126 51.3231 64.2178 50.9468 64.688 50.1941C65.1769 49.4414 65.4213 48.2371 65.4213 46.5812C65.4213 44.9441 65.1956 43.7492 64.7443 42.9965C64.293 42.2438 63.616 41.8674 62.7135 41.8674ZM82.3455 52.7344C81.8566 53.0731 81.2172 53.3648 80.4273 53.6094C79.6376 53.854 78.7067 53.9764 77.635 53.9764C75.4913 53.9764 73.8364 53.3742 72.6705 52.1699C71.5046 50.9468 70.9218 49.1027 70.9218 46.6376C70.9218 45.2075 71.1378 43.9373 71.5704 42.8271C72.0216 41.6981 72.6892 40.8137 73.573 40.1739C74.4759 39.5341 75.6041 39.2142 76.9579 39.2142C78.0862 39.2142 79.064 39.44 79.8916 39.8916C80.7188 40.3433 81.3582 41.0677 81.8095 42.065C82.2607 43.0435 82.4865 44.3607 82.4865 46.0166V47.7949H74.3911C74.4664 48.9804 74.7671 49.8648 75.2936 50.4481C75.8201 51.0314 76.6948 51.3231 77.917 51.3231C78.7443 51.3231 79.5529 51.1914 80.3428 50.928C81.1514 50.6645 81.819 50.354 82.3455 49.9965V52.7344ZM76.9016 41.8674C75.3221 41.8674 74.485 43.0153 74.3911 45.311H79.0735V45.0287C79.0735 44.1443 78.9135 43.401 78.5941 42.7989C78.293 42.1779 77.7289 41.8674 76.9016 41.8674ZM92.6693 53.6941L89.651 48.8957L86.8021 53.6941H83.389L87.8459 46.2989L83.5585 39.4965H87.3381L90.0459 43.7868L92.4717 39.4965H95.8284L91.8231 46.3836L96.4489 53.6941H92.6693ZM23.8442 53.6941H20.4312V48.0771L14 34.0771H17.5541L22.5749 45.0287C22.8946 45.725 23.1484 46.3177 23.3365 46.807C23.5246 47.2774 23.6562 47.7761 23.7314 48.303C23.8066 48.8298 23.8442 49.5166 23.8442 50.3634V53.6941ZM26.0726 43.561H22.6031L26.7777 34.0771H30.2472L26.0726 43.561Z" fill="black"></path></g><defs><clipPath id="clip0_512_12774"><rect width="120" height="27.8519" fill="white" transform="translate(14 29.9999)"></rect></clipPath></defs></svg>