<svg xmlns="http://www.w3.org/2000/svg" width="148" height="88" viewBox="0 0 148 88" fill="none"><g clip-path="url(#clip0_512_12787)"><rect width="148" height="88" fill="white"></rect><path fill-rule="evenodd" clip-rule="evenodd" d="M135.198 4.5416C135.227 -1.85105 133.805 -8.21334 130.989 -14.3025C127.895 -14.8791 124.699 -15.1724 121.487 -15.1724L26.5272 -15.1724C12.6556 -15.1724 -0.0135956 -9.72047 -6.09891 -1.12277C0.279678 6.15999 7.94865 12.8561 16.732 18.8138C63.2004 50.868 135.198 50.9692 135.198 4.5416Z" fill="#161616"></path><path fill-rule="evenodd" clip-rule="evenodd" d="M135.198 4.5416C135.227 -1.85105 133.805 -8.21334 130.989 -14.3025C127.895 -14.8791 124.699 -15.1724 121.487 -15.1724L26.5272 -15.1724C12.6556 -15.1724 -0.0135956 -9.72047 -6.09891 -1.12277C0.279678 6.15999 7.94865 12.8561 16.732 18.8138C63.2004 50.868 135.198 50.9692 135.198 4.5416Z" fill="url(#paint0_linear_512_12787)"></path><path fill-rule="evenodd" clip-rule="evenodd" d="M95.929 82.0625C129.508 82.0625 148.072 72.1803 157.794 56.6842V9.82163C157.794 -1.48688 146.811 -11.3894 130.989 -14.3531C133.805 -8.24366 135.227 -1.87125 135.198 4.54163C135.198 51.0704 63.2002 50.9186 16.7318 18.8644C7.93379 12.8865 0.264816 6.17013 -6.09911 -1.12274C-8.53323 2.29611 -9.7943 6.05886 -9.7943 9.8722V36.171C14.327 63.6432 54.4755 82.0625 95.929 82.0625Z" fill="#1B00FF"></path><path fill-rule="evenodd" clip-rule="evenodd" d="M157.794 75.3462V56.6841C148.072 72.1802 129.508 82.0625 95.929 82.0625C54.4755 82.0625 14.327 63.6432 -9.7943 36.08V75.3462C-9.7943 89.1834 6.46745 100.401 26.527 100.401L121.487 100.401C141.547 100.391 157.794 89.1834 157.794 75.3462Z" fill="#E2E2E2"></path><path fill-rule="evenodd" clip-rule="evenodd" d="M95.929 82.0625C129.508 82.0625 148.072 72.1803 157.794 56.6842V9.82163C157.794 -1.48688 146.811 -11.3894 130.989 -14.3531C133.805 -8.24366 135.227 -1.87125 135.198 4.54163C135.198 51.0704 63.2002 50.9186 16.7318 18.8644C7.93379 12.8865 0.264816 6.17013 -6.09911 -1.12274C-8.53323 2.29611 -9.7943 6.05886 -9.7943 9.8722V36.171C14.327 63.6432 54.4755 82.0625 95.929 82.0625Z" fill="url(#paint1_linear_512_12787)"></path><path fill-rule="evenodd" clip-rule="evenodd" d="M28.0109 42.9379H26.9671C25.2535 42.9379 23.8574 42.0567 23.8574 39.3361C23.8574 36.5063 25.384 35.5442 26.9671 35.5442H28.0109V42.9379ZM28.0109 44.4539V50.9502H29.9724V33.9999H27.0367C24.1619 33.9999 21.7394 35.7827 21.7394 39.3361C21.7394 41.8707 22.8093 43.2452 24.4185 44.0011L21 50.9502H23.2659L26.3756 44.4539H28.0109Z" fill="white"></path><path fill-rule="evenodd" clip-rule="evenodd" d="M123.585 45.1856C125.451 45.1856 126.447 45.9011 126.447 47.6353C126.447 49.4908 125.268 50.1619 123.616 50.1619H122.028V45.1856H123.585ZM123.507 39.9303C124.994 39.9303 125.912 40.476 125.912 42.0001C125.912 43.6615 124.916 44.3771 123.507 44.3771H122.028V39.9303H123.507ZM123.616 51.0351C126.034 51.0351 127.647 49.9436 127.647 47.5828C127.647 46.1396 126.908 45.1371 125.242 44.6883C126.408 44.2235 127.134 43.1279 127.056 41.9516C127.056 40.0475 125.834 39.049 123.576 39.049H120.858V51.0068L123.616 51.0351ZM116.896 51.0351H118.049V39.0207H117L112.812 47.4413C112.547 47.9547 112.316 48.4883 112.125 49.03H112.047C112.099 48.5085 112.151 47.987 112.151 47.3443V39.0207H111.029V51.0068H112.051L116.248 42.562C116.526 42.0647 116.752 41.5514 116.935 41.0177H117.013C116.948 41.5635 116.913 42.1092 116.909 42.659L116.896 51.0351ZM114.547 38.0061C116.078 38.0061 116.948 37.0763 116.948 35.625H115.904C115.904 36.7165 115.443 37.242 114.547 37.242C113.651 37.242 113.243 36.7165 113.243 35.625H112.168C112.151 37.048 113.043 37.9778 114.547 37.9778V38.0061ZM107.423 51.0068H108.524C108.332 50.2832 108.237 49.5394 108.241 48.7955V42.2588C108.241 39.8777 107.045 38.7822 104.923 38.7822C103.761 38.7378 102.644 39.1824 101.878 39.995L102.213 41.0662C102.822 40.2375 103.835 39.7444 104.914 39.7565C106.323 39.7565 107.062 40.565 107.062 42.372V43.8718H105.653C102.874 43.8718 101.369 45.2017 101.369 47.7768C101.369 49.9598 102.565 51.2453 104.301 51.2453C105.575 51.2453 106.501 50.5338 107.115 49.3898C107.154 49.9396 107.258 50.4813 107.423 51.0068ZM104.566 50.3438C103.339 50.3438 102.548 49.3655 102.548 47.6798C102.548 45.5858 103.57 44.6843 105.688 44.6843H107.071V47.987C106.614 49.2685 105.771 50.3438 104.566 50.3438ZM95.7588 51.221C98.1639 51.221 99.7383 49.0543 99.7383 44.66C99.7383 41.1835 98.4901 38.7822 96.3503 38.7822C94.9151 38.7822 93.9713 39.8535 93.4102 40.9935L93.3102 39.0207H92.2664V54.7138H93.4624V50.174C94.0148 50.833 94.8585 51.221 95.7588 51.221ZM95.8371 50.3438C94.6846 50.3438 93.9713 49.8668 93.4624 48.8926V42.182C94.0235 40.8965 94.9933 39.7565 96.1372 39.7565C97.6246 39.7565 98.5423 41.612 98.5423 44.749C98.5423 48.5328 97.4681 50.3438 95.8371 50.3438ZM89.3133 53.8365H90.3092V50.0366H89.0567V33.9999H82.6894C82.6068 38.7378 82.5372 42.4892 82.2806 45.0117C82.0283 47.4373 81.5891 49.3413 80.6975 50.0325H80.1495V53.8365H81.1411L81.3194 51.0068H89.148L89.3133 53.8365ZM87.7954 50.0366H82.0979C82.7938 49.2281 83.1983 47.5585 83.4288 45.0158C83.6289 42.566 83.7593 39.2835 83.8376 34.9782H87.7954V50.0366ZM54.7414 40.3831C55.8852 40.3831 56.2462 41.8788 56.2462 43.9243H52.9495C53.0713 41.7818 53.5062 40.379 54.737 40.379L54.7414 40.3831ZM46.6605 49.4828H43.2464C44.3207 46.94 44.4468 43.2573 44.4468 40.7307V40.5205H46.6605V49.4828ZM72.5514 51.1725C73.5343 51.1968 74.4912 50.8734 75.2262 50.271L74.7913 48.8926C74.1867 49.3736 73.4126 49.6364 72.6166 49.6283C71.0031 49.6283 70.2376 47.9143 70.2376 44.9228C70.2376 41.9313 71.2597 40.4033 72.6862 40.4033C73.4734 40.4437 74.2259 40.7388 74.8087 41.232L75.0914 39.4695C74.3868 39.041 73.5561 38.8267 72.7123 38.855C69.7027 38.855 68.1457 41.2562 68.1457 45.0117C68.137 49.1068 69.7984 51.1725 72.5558 51.1725H72.5514ZM65.7101 51.0068H67.8847L64.2314 44.66L67.428 39.0207H65.4057L62.3177 44.563V39.0207H60.3258V51.0068H62.3177V45.036L65.7101 51.0068ZM37.4402 39.0207V44.1103H34.4828V39.0207H32.4995V51.0068H34.4828V45.6343H37.4446V51.0068H39.4148V39.0207H37.4402ZM58.3164 50.1983L57.8554 48.7713C57.1248 49.2766 56.2419 49.5596 55.3285 49.5798C53.7498 49.5798 52.9321 48.1528 52.9321 45.4402H58.2816V44.4215C58.2816 40.3548 56.8768 38.855 54.737 38.855C52.0014 38.855 50.8532 41.6605 50.8532 45.513C50.8532 49.2038 52.4885 51.1725 55.1415 51.1725C56.2854 51.1887 57.4031 50.8451 58.3077 50.1983H58.3164ZM49.6659 49.4828H48.6351V39.0207H42.6593V40.0435C42.6593 43.233 42.5288 46.94 41.3545 49.4828H40.5717V53.3595H42.3592V51.0068H47.8696V53.3595H49.6572L49.6659 49.4828Z" fill="white"></path></g><defs><linearGradient id="paint0_linear_512_12787" x1="57.0629" y1="-21.7008" x2="69.5709" y2="45.9797" gradientUnits="userSpaceOnUse"><stop stop-color="#C5DDF3" stop-opacity="0.2"></stop><stop offset="0.11" stop-color="#A2B5C7" stop-opacity="0.16"></stop><stop offset="0.42" stop-color="#555D65" stop-opacity="0.07"></stop><stop offset="0.72" stop-color="#26282A" stop-opacity="0.02"></stop><stop offset="1" stop-color="#161616" stop-opacity="0"></stop></linearGradient><linearGradient id="paint1_linear_512_12787" x1="73.9998" y1="82.0625" x2="73.9998" y2="-14.3531" gradientUnits="userSpaceOnUse"><stop stop-color="white" stop-opacity="0.25"></stop><stop offset="0.22" stop-color="white" stop-opacity="0.16"></stop><stop offset="0.5" stop-color="white" stop-opacity="0.07"></stop><stop offset="0.76" stop-color="white" stop-opacity="0.02"></stop><stop offset="1" stop-color="white" stop-opacity="0"></stop></linearGradient><clipPath id="clip0_512_12787"><rect width="148" height="88" fill="white"></rect></clipPath></defs></svg>