<svg width="134" height="40" viewBox="0 0 134 40" fill="none" xmlns="http://www.w3.org/2000/svg">
<g clip-path="url(#clip0_512_7423)">
<path d="M47.7636 14.1942H51.8117L54.9086 23.8528H51.61L51.1616 22.2431H48.0134L47.565 23.8528H44.6667L47.7636 14.1942ZM48.5642 20.1447H50.5114L49.5635 16.6307L48.5642 20.1447ZM55.9078 14.1942H60.6028C61.7526 14.1942 62.6012 14.4385 63.1521 14.8769C63.703 15.3154 63.9528 15.9511 63.9528 16.731V16.7811C63.9528 17.9023 63.4019 18.585 62.2554 18.8794C62.8542 18.9765 63.3539 19.2208 63.703 19.6123C64.052 20.0037 64.2538 20.4892 64.2538 21.1249V21.1751C64.2538 22.979 63.056 23.8591 60.606 23.8591H55.9591V14.2005H55.9078V14.1942ZM59.9559 21.8046C60.7566 21.8046 61.1537 21.4632 61.1537 20.7805V20.7303C61.1537 20.0977 60.7534 19.7563 59.9047 19.7563H58.9567V21.8046H59.9559ZM59.9559 17.9524C60.3562 17.9524 60.606 17.9023 60.8046 17.7582C60.9551 17.611 61.0544 17.4169 61.0544 17.1225V17.0723C61.0544 16.4867 60.7053 16.1954 59.9559 16.1954H59.008V17.9524H59.9559ZM67.2514 16.5368H64.7534V14.1942H72.8974V16.5368H70.3994V23.8528H67.2514V16.5368ZM78.544 21.6104C79.1427 21.6104 79.642 21.3661 79.9914 20.9277C80.3407 20.4892 80.542 19.8534 80.542 19.0736V18.9765C80.542 18.1466 80.3434 17.5609 79.9914 17.1225C79.642 16.684 79.1427 16.4898 78.4927 16.4898C77.8934 16.4898 77.394 16.684 77.0447 17.1225C76.696 17.5609 76.494 18.1967 76.494 18.9765V19.0736C76.494 19.9035 76.6927 20.5362 77.0447 20.9747C77.394 21.3661 77.8934 21.6073 78.544 21.6073V21.6104ZM78.4447 24C76.8467 24 75.546 23.5615 74.646 22.6345C73.698 21.7075 73.2467 20.5362 73.2467 19.0235V18.9264C73.2467 17.4638 73.746 16.2925 74.7454 15.3655C75.7447 14.4385 76.994 14 78.544 14C80.094 14 81.3907 14.4385 82.39 15.3185C83.3894 16.1954 83.8887 17.3667 83.8887 18.8794V18.9765C83.8887 20.4892 83.3894 21.7075 82.4414 22.6345C81.3907 23.5615 80.094 24 78.4447 24ZM88.286 19.4619C88.1867 20.389 88.036 21.0216 87.838 21.4632H90.534V16.5368H88.4847C88.334 18.1466 88.286 19.1206 88.286 19.4651V19.4619ZM83.988 23.8528V21.5102H84.638C85.138 21.2659 85.4874 20.5331 85.6374 19.2177C85.7367 18.5349 85.7367 16.8751 85.7367 14.1942H93.6314V21.5133H94.832V23.8559H83.9914L83.988 23.8528ZM95.678 23.8528V14.1942H98.826V19.7563L101.974 14.1942H105.071V23.8528H101.974V18.1935L98.826 23.8027H95.678V23.8528ZM110.365 20.1948C110.214 21.4632 109.917 22.3902 109.417 23.0229C108.969 23.6586 108.219 24 107.268 24H106.919C106.819 24 106.72 23.953 106.618 23.953C106.515 23.953 106.467 23.9029 106.419 23.9029C106.371 23.9029 106.32 23.8528 106.269 23.8528L106.217 23.8027V21.4601L106.317 21.5102C106.416 21.5102 106.515 21.5571 106.618 21.5571C106.919 21.5571 107.169 21.363 107.367 21.0216C107.518 20.6803 107.668 20.1447 107.767 19.4119C107.867 18.4347 107.918 16.7279 107.918 14.1441H115.662V23.8027H112.466V16.4867H110.567C110.515 18.2437 110.467 19.4619 110.368 20.1948H110.365ZM117.411 14.1942H124.456V16.5368H120.559V17.9023H123.655V20.0476H120.559V21.5102H124.706V23.8528H117.462V14.1942H117.411ZM126.003 14.1942H129.952C132.649 14.1942 134 15.3154 134 17.5108V17.5609C134 18.585 133.651 19.3649 133.001 19.9035C132.351 20.4391 131.351 20.7335 130.055 20.7335H129.107V23.9029H125.958V14.1942H126.009H126.003ZM129.75 18.6351C130.599 18.6351 130.999 18.2938 130.999 17.5609V17.5108C130.999 17.1193 130.9 16.8782 130.698 16.731C130.499 16.5838 130.199 16.4867 129.75 16.4867H129.1V18.6821H129.75V18.6351Z" fill="#FEFEFE"/>
<path d="M27.4618 21.1242L24.5911 22.1835L26.0283 25.0505L30.1473 22.9947L32.8327 24.9875L36.5145 23.1169L13.0457 5.8561V34.9551L16.7275 33.0845V29.7213L21.0945 27.5396L19.7203 24.8615L16.6608 26.8543V13.0197L27.4581 21.1205L27.4618 21.1242ZM20.0352 38.0739C25.0283 38.0739 29.5842 36.0811 32.8289 32.7771C35.0736 30.5325 36.7589 27.6692 37.5701 24.4911L32.6401 26.984L29.9583 25.0542L18.4758 30.8473V34.2106L17.9757 34.4587L13.2938 36.7627C15.3533 37.6331 17.6609 38.0702 20.0352 38.0702V38.0739ZM38.0072 22.0613C38.0702 21.3761 38.1331 20.6908 38.1331 20.0055C38.1331 15.0199 36.1367 10.4713 32.8289 7.23027C29.5842 3.98926 25.0283 1.93351 20.0352 1.93351C17.4757 1.93351 14.9791 2.49283 12.7345 3.49291L38.0109 22.0613H38.0072ZM11.2344 4.23743C9.73793 5.04861 8.42673 6.04501 7.2414 7.2266C3.99667 10.4677 1.93722 15.0162 1.93722 20.0019C1.93722 24.9875 3.9337 29.5361 7.2414 32.7771C8.42673 33.9624 9.73793 34.9588 11.2344 35.7663V4.23743ZM39.8185 23.3651C39.1333 27.5396 37.0738 31.277 34.2031 34.1439C30.5843 37.7591 25.5913 40 20.0352 40C14.4791 40 9.4898 37.7553 5.86721 34.1439C2.24836 30.5287 0 25.5468 0 19.9981C0 14.4495 2.24836 9.46753 5.86721 5.85239C9.48607 2.24465 14.5421 0 20.0352 0C25.5283 0 30.5806 2.24465 34.2031 5.8561C37.822 9.47127 40.0704 14.4532 40.0704 20.0019C40.0704 21.1871 40.0074 22.3058 39.8222 23.3651H39.8185Z" fill="#F68E57"/>
<path d="M21.1571 23.8649L18.5347 25.6095V14.5195L27.4577 21.1239L24.5241 22.1832L26.4576 25.9206L23.0869 27.6022L21.1534 23.8649H21.1571Z" fill="#FEFEFE"/>
<path d="M44.6696 26.8057H50.85V29.0176H47.5736V35.9254H44.6667V26.8057H44.6696ZM56.1107 33.8525C56.6637 33.8525 57.125 33.6218 57.4474 33.2078C57.7696 32.7938 57.956 32.1935 57.956 31.4572V31.3655C57.956 30.5819 57.7726 30.0289 57.4474 29.6149C57.125 29.2009 56.6637 29.0146 56.0634 29.0146C55.5104 29.0146 55.0491 29.1979 54.7268 29.6149C54.4045 30.0289 54.2182 30.6292 54.2182 31.3655V31.4572C54.2182 32.2408 54.4015 32.8381 54.7268 33.2521C55.0491 33.6218 55.5104 33.8495 56.1107 33.8495V33.8525ZM56.019 36.1087C54.5434 36.1087 53.3428 35.6947 52.5119 34.8194C51.6366 33.9441 51.2196 32.8381 51.2196 31.4099V31.3182C51.2196 29.9373 51.681 28.8313 52.6036 27.956C53.5262 27.0807 54.6795 26.6667 56.1107 26.6667C57.542 26.6667 58.7396 27.0807 59.6622 27.9116C60.5848 28.7396 61.0462 29.8455 61.0462 31.2739V31.3655C61.0462 32.7938 60.5848 33.9441 59.7095 34.8194C58.6952 35.6947 57.4946 36.1087 56.019 36.1087ZM65.0619 31.8239C64.9702 32.6992 64.8312 33.2995 64.6479 33.7135H67.1378V29.0619H65.2452C65.1536 30.5819 65.1062 31.5045 65.0619 31.8268V31.8239ZM61.0934 35.9224V33.7105H61.6938C62.155 33.4799 62.4774 32.7879 62.6164 31.5459C62.708 30.9013 62.708 29.334 62.708 26.8027H69.9974V33.7105H71.1034V35.9224H61.0934ZM74.288 26.8027H78.026L80.8854 35.9224H77.8394L77.4254 34.4025H74.5187L74.1047 35.9224H71.4287L74.288 26.8027ZM75.072 32.4685H76.8694L75.994 29.1536L75.072 32.4685Z" fill="#FEFEFE"/>
<path d="M110.42 35.5253V33.8355H106.519V32.3073L110.569 26.8281H112.656V31.9967H113.601V33.8355H112.656V35.5253H110.42ZM108.519 31.9967H110.42V29.3006L108.519 31.9967Z" fill="#F68E57"/>
<path d="M98.9973 35.5253V33.935L101.88 31.5495C102.161 31.3175 102.402 31.1105 102.601 30.9283C102.799 30.7377 102.961 30.5597 103.085 30.394C103.217 30.2283 103.313 30.071 103.371 29.9219C103.437 29.7645 103.47 29.603 103.47 29.4373C103.47 29.1474 103.387 28.9238 103.222 28.7664C103.065 28.609 102.837 28.5303 102.539 28.5303C102.141 28.5303 101.843 28.6505 101.644 28.8907C101.453 29.1309 101.358 29.4995 101.358 29.9964H99.1213C99.1213 29.4663 99.192 28.9942 99.3326 28.5801C99.474 28.1659 99.6846 27.818 99.9666 27.5364C100.257 27.2547 100.613 27.0394 101.035 26.8903C101.466 26.7412 101.967 26.6667 102.539 26.6667C103.077 26.6667 103.541 26.7371 103.93 26.8779C104.327 27.0104 104.659 27.2009 104.924 27.4494C105.189 27.6896 105.383 27.9795 105.508 28.3191C105.641 28.6587 105.707 29.0315 105.707 29.4373C105.707 29.7355 105.653 30.0213 105.545 30.2946C105.446 30.5679 105.301 30.833 105.11 31.0898C104.928 31.3465 104.709 31.5951 104.452 31.8353C104.195 32.0755 103.917 32.3115 103.619 32.5435L102.116 33.6865H105.831V35.5253H98.9973Z" fill="#F68E57"/>
<path d="M94.644 35.6869C94.1553 35.6869 93.7 35.6081 93.2773 35.4508C92.8547 35.2851 92.4867 35.0242 92.1713 34.6681C91.8567 34.3119 91.6087 33.848 91.426 33.2765C91.252 32.6967 91.1653 31.9968 91.1653 31.1767V30.9283C91.1653 30.1662 91.252 29.516 91.426 28.9776C91.6087 28.4392 91.8567 28.0002 92.1713 27.6606C92.4867 27.3127 92.8547 27.0601 93.2773 26.9027C93.7 26.7453 94.1553 26.6667 94.644 26.6667C95.1327 26.6667 95.588 26.7453 96.0107 26.9027C96.4333 27.0601 96.802 27.3127 97.1167 27.6606C97.4313 28.0002 97.6753 28.4392 97.8493 28.9776C98.032 29.516 98.1227 30.1662 98.1227 30.9283V31.1767C98.1227 31.9968 98.032 32.6967 97.8493 33.2765C97.6753 33.848 97.4313 34.3119 97.1167 34.6681C96.802 35.0242 96.4333 35.2851 96.0107 35.4508C95.588 35.6081 95.1327 35.6869 94.644 35.6869ZM94.644 33.848C94.81 33.848 94.9673 33.8066 95.116 33.7238C95.2733 33.6409 95.406 33.5001 95.514 33.3013C95.63 33.0943 95.7207 32.8209 95.7873 32.4813C95.8533 32.1335 95.8867 31.6986 95.8867 31.1767V30.9283C95.8867 30.4644 95.8533 30.0793 95.7873 29.7728C95.7207 29.4663 95.63 29.2178 95.514 29.0273C95.406 28.8368 95.2733 28.7043 95.116 28.6297C94.9673 28.5469 94.81 28.5055 94.644 28.5055C94.4787 28.5055 94.3167 28.5469 94.1593 28.6297C94.0107 28.7043 93.878 28.8368 93.762 29.0273C93.654 29.2178 93.5673 29.4663 93.5013 29.7728C93.4347 30.0793 93.4013 30.4644 93.4013 30.9283V31.1767C93.4013 31.6986 93.4347 32.1335 93.5013 32.4813C93.5673 32.8209 93.654 33.0943 93.762 33.3013C93.878 33.5001 94.0107 33.6409 94.1593 33.7238C94.3167 33.8066 94.4787 33.848 94.644 33.848Z" fill="#F68E57"/>
<path d="M83.3333 35.5253V33.935L86.216 31.5495C86.4973 31.3175 86.7373 31.1105 86.9366 30.9283C87.1353 30.7377 87.2966 30.5597 87.4206 30.394C87.5533 30.2283 87.6486 30.071 87.7066 29.9219C87.7733 29.7645 87.806 29.603 87.806 29.4373C87.806 29.1474 87.7233 28.9238 87.5573 28.7664C87.4 28.609 87.1726 28.5303 86.874 28.5303C86.4766 28.5303 86.1786 28.6505 85.98 28.8907C85.7893 29.1309 85.694 29.4995 85.694 29.9964H83.4573C83.4573 29.4663 83.528 28.9942 83.6686 28.5801C83.8093 28.1659 84.0206 27.818 84.3026 27.5364C84.5926 27.2547 84.9486 27.0394 85.3706 26.8903C85.8013 26.7412 86.3026 26.6667 86.874 26.6667C87.4126 26.6667 87.8766 26.7371 88.266 26.8779C88.6633 27.0104 88.9946 27.2009 89.26 27.4494C89.5246 27.6896 89.7193 27.9795 89.844 28.3191C89.976 28.6587 90.0426 29.0315 90.0426 29.4373C90.0426 29.7355 89.9886 30.0213 89.8813 30.2946C89.7813 30.5679 89.6367 30.833 89.446 31.0898C89.264 31.3465 89.0447 31.5951 88.788 31.8353C88.5307 32.0755 88.2533 32.3115 87.9553 32.5435L86.452 33.6865H90.1666V35.5253H83.3333Z" fill="#F68E57"/>
<mask id="mask0_512_7423" style="mask-type:luminance" maskUnits="userSpaceOnUse" x="44" y="0" width="41" height="10">
<path d="M84.0774 0H44.6667V9.99147H84.0774V0Z" fill="white"/>
</mask>
<g mask="url(#mask0_512_7423)">
<path d="M57.761 5.15495L58.9736 7.9968L58.1017 7.9984L57.8705 7.52607L56.3913 7.5284L56.1611 8.00213L55.2892 8.00327L56.4892 5.15769L57.761 5.15495ZM57.0668 5.79283L56.668 6.7918L57.587 6.7904L57.1857 5.79283H57.0668Z" fill="#FEFEFE"/>
<path d="M61.496 5.14909C61.8556 5.14909 62.2429 5.19984 62.2438 5.95155C62.2448 6.26559 62.1295 6.4613 61.9971 6.53281C62.2211 6.64762 62.3334 6.8582 62.3344 7.204C62.335 7.78527 62.1177 7.99213 61.5895 7.99273L59.3332 7.99707L59.3286 5.15321L61.496 5.14909ZM60.0761 6.22132L61.3995 6.21936C61.5125 6.21936 61.5862 6.16723 61.5856 6.02834C61.5856 5.88551 61.5105 5.83733 61.3989 5.83752L60.0759 5.83987L60.0761 6.22132ZM60.0786 7.30727L61.3717 7.30527C61.5002 7.30527 61.5879 7.22927 61.5879 7.0904C61.5876 6.89507 61.4987 6.85587 61.3709 6.85587L60.0778 6.8578L60.0786 7.30727Z" fill="#FEFEFE"/>
<path d="M62.8197 5.14707L65.7058 5.14258L65.7075 5.87861L64.6388 5.88037L64.6422 7.98833L63.8958 7.98953L63.8924 5.88174L62.8203 5.88311L62.8197 5.14707Z" fill="#FEFEFE"/>
<path d="M67.9398 8.02253C66.3685 8.02513 66.3382 7.92947 66.3352 6.56539C66.3336 5.20516 66.3637 5.10191 67.935 5.09899C69.4987 5.09683 69.5394 5.20007 69.542 6.56028C69.544 7.9162 69.5034 8.02 67.9398 8.02253ZM67.9388 7.28653C68.7934 7.28553 68.7967 7.28147 68.7954 6.56107C68.7934 5.83756 68.7907 5.83366 67.9392 5.83521C67.085 5.83619 67.0814 5.84032 67.082 6.564C67.0834 7.28433 67.0866 7.28787 67.9388 7.28653Z" fill="#FEFEFE"/>
<path d="M72.958 6.22412L72.2107 6.22529C72.2107 5.91145 72.1494 5.82798 71.4674 5.82917C70.734 5.83015 70.7314 5.85405 70.732 6.55795C70.734 7.2658 70.7374 7.28187 71.4694 7.28087C72.142 7.27987 72.2127 7.21993 72.212 6.882L72.958 6.88C72.96 7.85527 72.9127 8.01373 71.4714 8.01633C70.0634 8.01887 69.9887 7.89527 69.9867 6.55501C69.984 5.22281 70.058 5.09527 71.4667 5.09313C72.8947 5.09057 72.956 5.25769 72.958 6.22412Z" fill="#FEFEFE"/>
<path d="M73.5154 5.1297L76.4027 5.125L76.404 5.86104L75.3347 5.863L75.3387 7.971L74.592 7.972L74.588 5.86398L73.5167 5.86535L73.5154 5.1297Z" fill="#FEFEFE"/>
<path d="M79.29 5.11979L80.502 7.96187L79.6314 7.9632L79.3987 7.49033L77.92 7.49267L77.69 7.9662L76.818 7.96753L78.018 5.12194L79.29 5.11979ZM78.5954 5.75767L78.1967 6.7564L79.116 6.75507L78.7147 5.75689L78.5954 5.75767Z" fill="#FEFEFE"/>
<path d="M80.932 5.11733L83.818 5.11263L83.82 5.84848L82.7514 5.85043L82.7547 7.95847L82.008 7.9594L82.0054 5.852L80.9327 5.85337L80.932 5.11733Z" fill="#FEFEFE"/>
<path d="M55.4506 9.98433L55.2175 9.98473L55.6644 8.79353L55.8824 8.793L56.3336 9.98273L56.1004 9.98293L56.0138 9.73333L55.5369 9.73373L55.4506 9.98433ZM55.9551 9.55333L55.7744 9.02453L55.5942 9.55353L55.9551 9.55333Z" fill="#FEFEFE"/>
<path d="M56.8234 9.98193H56.6064L56.6044 8.7922L56.8215 8.7918L56.8229 9.26787L57.3536 9.26747L57.3532 8.7912L57.5713 8.791L57.5726 9.9808L57.3546 9.9812L57.3536 9.44733L56.8229 9.44847L56.8234 9.98193Z" fill="#FEFEFE"/>
<path d="M58.0784 9.9804L57.8449 9.9806L58.2921 8.78927L58.5107 8.78907L58.9615 9.979H58.7284L58.6411 9.72927L58.1653 9.73L58.0784 9.9804ZM58.5835 9.5494L58.4021 9.021L58.2223 9.5496L58.5835 9.5494Z" fill="#FEFEFE"/>
<path d="M59.0742 9.7974C59.3344 9.84287 59.3413 9.49573 59.3403 9.25473L59.3399 8.78693L60.154 8.78513L60.157 9.97587L59.9395 9.97627L59.9376 8.9658L59.5576 8.9664L59.5582 9.3184C59.5586 9.61793 59.5295 10.0499 59.0744 9.97767L59.0742 9.7974Z" fill="#FEFEFE"/>
<path d="M61.363 8.78427L61.5763 8.78387L61.5776 9.9742L61.3596 9.9744L61.3582 9.104L60.7932 9.9756L60.5804 9.97593L60.5785 8.7852L60.7961 8.7846L60.7975 9.65587L61.363 8.78427Z" fill="#FEFEFE"/>
<path d="M61.8763 8.96373V8.78347L62.8431 8.78193L62.8435 8.96233L62.4688 8.96313L62.4708 9.97267L62.2527 9.97347L62.2508 8.96313L61.8763 8.96373Z" fill="#FEFEFE"/>
<path d="M63.9287 8.78013L64.142 8.77993L64.1441 9.96973H63.9263L63.925 9.09987L63.3594 9.97127H63.147L63.1441 8.78153L63.3622 8.78113L63.3634 9.65173L63.9287 8.78013Z" fill="#FEFEFE"/>
<path d="M64.738 8.77893L64.7389 9.1002C64.7389 9.214 64.7458 9.29927 64.9896 9.29867C65.0845 9.29827 65.1882 9.28807 65.2057 9.28613L65.2042 8.77773L65.4222 8.77733L65.4242 9.96807L65.2068 9.96847L65.2057 9.46693C65.1388 9.47187 65.0384 9.47873 64.9624 9.47873C64.7071 9.47947 64.5213 9.4166 64.5213 9.1494L64.5204 8.77893H64.738Z" fill="#FEFEFE"/>
<path d="M66.6708 9.2662V9.44607L66.065 9.44687L66.0655 9.78753L66.7599 9.78633L66.7603 9.9664L65.8478 9.96773L65.8459 8.7772L66.7396 8.77607L66.7402 8.95607L66.064 8.95687L66.0646 9.2662H66.6708Z" fill="#FEFEFE"/>
<path d="M68.1055 9.5572C68.0899 9.7374 67.9944 9.99973 67.5913 10.0001C67.4992 10.0001 67.0005 9.99253 66.9994 9.39067C66.999 8.90067 67.2814 8.73907 67.5776 8.73827C67.9858 8.73733 68.0779 8.98747 68.0888 9.15713L67.8725 9.15793C67.8581 9.0588 67.7998 8.91833 67.5774 8.91873C67.3119 8.91873 67.2318 9.1352 67.2323 9.38167C67.2327 9.6606 67.3864 9.82007 67.6002 9.82007C67.7985 9.81913 67.8825 9.68513 67.8896 9.5576L68.1055 9.5572Z" fill="#FEFEFE"/>
<path d="M69.1867 8.77107L69.4787 8.7708L68.9867 9.26453L69.5134 9.9604L69.2207 9.9614L68.8274 9.41127L68.6674 9.56627V9.9622L68.4491 9.96273L68.4476 8.7724L68.6658 8.772L68.6667 9.30747L69.1867 8.77107Z" fill="#FEFEFE"/>
<path d="M70.2993 8.73373C70.4033 8.73333 70.8833 8.74607 70.884 9.3632C70.8847 9.98073 70.4053 9.9952 70.3007 9.9954C70.1973 9.9956 69.7167 9.98287 69.7167 9.36513C69.7153 8.7482 70.196 8.73373 70.2993 8.73373ZM70.3013 9.81513C70.596 9.81453 70.6513 9.54753 70.6507 9.3638C70.6507 9.1804 70.594 8.9134 70.2993 8.9136C70.0047 8.91433 69.95 9.1816 69.95 9.36493C69.95 9.54873 70.0067 9.81533 70.3013 9.81513Z" fill="#FEFEFE"/>
<path d="M72.0633 9.25713V9.43693L71.4587 9.43813V9.7782L72.1534 9.77707V9.95727L71.2413 9.95867L71.2393 8.76853L72.1327 8.76693L72.1333 8.947L71.4567 8.94813L71.4587 9.25787L72.0633 9.25713Z" fill="#FEFEFE"/>
<path d="M73.074 9.95507L72.8414 9.95567L73.2887 8.76453L73.506 8.76433L73.958 9.95367L73.724 9.95407L73.638 9.70453L73.1614 9.70467L73.074 9.95507ZM73.5794 9.52427L73.398 8.99587L73.2187 9.52507L73.5794 9.52427Z" fill="#FEFEFE"/>
<path d="M74.448 9.95347L74.2294 9.95373L74.228 8.76373L75.0074 8.7624V8.9426L74.446 8.9434L74.448 9.95347Z" fill="#FEFEFE"/>
<path d="M76.132 9.24933L76.1333 9.4294L75.5273 9.43033V9.77087L76.2227 9.76967V9.94953L75.3107 9.95107L75.308 8.76113L76.202 8.75973V8.9396L75.526 8.9408L75.5273 9.25033L76.132 9.24933Z" fill="#FEFEFE"/>
<path d="M76.7487 9.94973L76.5307 9.94993L76.5287 8.7594L76.746 8.7588L76.7467 9.23527L77.2787 9.23407L77.2774 8.7578H77.4954L77.4974 9.948L77.2794 9.9486L77.2787 9.41433L76.7474 9.41527L76.7487 9.94973Z" fill="#FEFEFE"/>
<path d="M77.7967 8.9366V8.7564L78.7634 8.7552V8.93507L78.3887 8.93627L78.39 9.94613L78.1727 9.94633L78.1714 8.9364L77.7967 8.9366Z" fill="#FEFEFE"/>
<path d="M80.09 9.53727C80.0733 9.71813 79.9787 9.9802 79.576 9.9804C79.484 9.9806 78.9853 9.97313 78.984 9.37093C78.9833 8.88133 79.2653 8.71933 79.562 8.71873C79.97 8.718 80.0627 8.96773 80.0733 9.1384H79.8567C79.8433 9.03987 79.7847 8.8984 79.5627 8.8992C79.2967 8.8994 79.216 9.11567 79.2173 9.36213C79.218 9.64107 79.3713 9.8008 79.586 9.8008C79.7833 9.8002 79.868 9.6654 79.8747 9.53807L80.09 9.53727Z" fill="#FEFEFE"/>
<path d="M80.3107 8.93353V8.75293L81.2774 8.75193L81.278 8.932L80.9034 8.9324L80.906 9.94233L80.6867 9.94267L80.686 8.9326L80.3107 8.93353Z" fill="#FEFEFE"/>
<path d="M82.14 8.75C82.4433 8.7498 82.5033 8.91947 82.5033 9.05013C82.5033 9.1818 82.422 9.2856 82.3067 9.3064V9.30933C82.4053 9.3262 82.5533 9.39373 82.5533 9.60673C82.5547 9.90747 82.2973 9.94033 82.1187 9.94053L81.5807 9.94173L81.578 8.751L82.14 8.75ZM81.7973 9.23367L82.0847 9.23333C82.2053 9.23293 82.2787 9.19567 82.2787 9.09187C82.278 8.93373 82.1253 8.93 82.0787 8.93L81.7967 8.9308L81.7973 9.23367ZM81.7973 9.76067L82.096 9.76053C82.2287 9.75953 82.3287 9.7274 82.3287 9.5828C82.3287 9.42293 82.1907 9.41333 82.1 9.41353L81.7973 9.41393V9.76067Z" fill="#FEFEFE"/>
<path d="M83.4447 8.71227C83.5487 8.71227 84.0287 8.7252 84.0294 9.34193C84.0307 9.9596 83.5507 9.97413 83.4474 9.97413C83.3427 9.97413 82.8627 9.961 82.862 9.34467C82.8614 8.72693 83.3407 8.71267 83.4447 8.71227ZM83.4467 9.79407C83.7407 9.79307 83.7967 9.52647 83.7967 9.34267C83.796 9.15913 83.7394 8.89193 83.4454 8.89267C83.1507 8.89307 83.0954 9.16007 83.0954 9.34407C83.0954 9.52767 83.152 9.79407 83.4467 9.79407Z" fill="#FEFEFE"/>
<path d="M55.5919 3.66661L53.7618 0.509101C53.627 0.375098 53.4637 0.313386 53.3033 0.334936C53.1435 0.35629 53.003 0.458752 52.9072 0.623905L51.1054 3.75907C51.0132 3.91952 50.9954 4.06645 51.0579 4.17303C51.1191 4.27921 51.2561 4.3372 51.4418 4.33699L55.0592 4.32858C55.2507 4.32858 55.4092 4.25688 55.5076 4.12836C55.6054 4.00004 55.6325 3.82841 55.5919 3.66661Z" fill="#FEFEFE"/>
<path d="M47.5567 0.380699L47.5202 0.587581C47.5242 0.684559 47.5551 0.782319 47.61 0.877919L49.426 4.00407C49.5215 4.16785 49.6437 4.25817 49.7702 4.25817C49.8966 4.25757 50.0188 4.16708 50.1129 4.0029L51.9148 0.868126C51.9768 0.760373 52.0074 0.646159 52.0024 0.538406L51.9656 0.371295C51.906 0.226125 51.7732 0.117198 51.5928 0.0643024C51.5636 0.0601881 47.9568 0.0684167 47.9568 0.0684167C47.7486 0.125818 47.6163 0.235136 47.5567 0.380699ZM49.7696 4.05971C49.7317 4.05932 49.6643 4.01897 49.5984 3.90493L47.782 0.778006C47.7437 0.712179 47.7218 0.643219 47.72 0.579549L47.7398 0.456515C47.7763 0.367573 47.8639 0.298807 47.9851 0.262957C47.9864 0.266483 51.5642 0.258449 51.5642 0.258449C51.6582 0.289991 51.7454 0.358756 51.7822 0.447701L51.8036 0.546244C51.8066 0.616771 51.7858 0.694353 51.7421 0.769579L49.9406 3.90377C49.8743 4.01857 49.8068 4.05932 49.7696 4.05971Z" fill="#FEFEFE"/>
<path d="M46.5174 0.866779C46.4999 0.889112 44.7043 4.01213 44.7043 4.01213C44.6937 4.03897 44.6733 4.22038 44.6733 4.22038C44.6782 4.33068 44.7135 4.43157 44.7764 4.51308C44.8768 4.64395 45.0396 4.71603 45.2331 4.71525L48.8514 4.70702C49.0414 4.70663 49.1814 4.64571 49.2436 4.53619L49.2798 4.37436L49.1936 4.11166L47.3772 0.986093C47.2807 0.818586 47.1364 0.714559 46.9724 0.692613C46.816 0.672239 46.655 0.733952 46.5174 0.866779ZM46.6726 0.987266C46.7482 0.919479 46.8515 0.877552 46.947 0.889899C47.0483 0.903026 47.1403 0.972573 47.2058 1.08561L49.0222 4.21176L49.0814 4.38299L49.0706 4.43764C49.0522 4.47076 48.9834 4.50856 48.851 4.50897L45.2331 4.51679C45.1021 4.51719 44.9956 4.47311 44.9341 4.39259C44.8958 4.34341 44.875 4.28249 44.8721 4.21255L44.8882 4.08481C44.8929 4.08461 46.6726 0.987266 46.6726 0.987266Z" fill="#FEFEFE"/>
<path d="M44.8189 5.29382C44.7466 5.38687 44.7122 5.5054 44.7171 5.63371L44.7375 5.76693C44.7493 5.79378 46.0228 7.9882 46.0228 7.9882L46.5592 8.91053C46.7143 9.06493 46.8763 9.12567 47.0318 9.10467C47.1964 9.08233 47.339 8.97793 47.4364 8.8098L49.2374 5.67585C49.331 5.51402 49.3484 5.35906 49.2864 5.2511C49.2219 5.14119 49.0829 5.08125 48.8929 5.08204L45.275 5.09007C45.081 5.09046 44.9193 5.16256 44.8189 5.29382ZM44.916 5.62607C44.913 5.54399 44.9338 5.47091 44.9769 5.4147C45.0385 5.33379 45.1448 5.28892 45.2754 5.28853L48.8939 5.28069C49.0266 5.28029 49.0948 5.3183 49.1143 5.35101C49.1196 5.36101 49.1231 5.37512 49.1244 5.39315C49.1258 5.43525 49.1113 5.49776 49.0658 5.57612L47.2634 8.71067C47.1984 8.82433 47.1069 8.89427 47.0055 8.9078C46.911 8.92073 46.8072 8.8782 46.7138 8.78947C46.7128 8.78087 46.1948 7.88787 46.1948 7.88787L44.9206 5.69425C44.9314 5.7209 44.916 5.62607 44.916 5.62607Z" fill="#FEFEFE"/>
<path d="M49.483 5.76653L47.6811 8.90053C47.6192 9.00827 47.5886 9.12247 47.5929 9.2298L47.6298 9.39713C47.6899 9.54273 47.8226 9.65167 48.0044 9.70473C48.0321 9.70847 51.6384 9.7004 51.6384 9.7004C51.8473 9.6424 51.9796 9.53293 52.0392 9.38793L52.0757 9.18167C52.0718 9.08367 52.0412 8.98653 51.9855 8.89113L50.17 5.76476C50.0746 5.60059 49.9524 5.51107 49.826 5.51107C49.6993 5.51087 49.5776 5.60138 49.483 5.76653ZM48.0317 9.5096C47.9372 9.47807 47.8505 9.40927 47.8136 9.32073L47.7919 9.2218C47.7895 9.15187 47.8097 9.07487 47.8538 8.99947L49.6558 5.86508C49.7216 5.75007 49.7891 5.70933 49.8264 5.70933C49.8642 5.70933 49.931 5.74947 49.9979 5.86429L51.814 8.9906C51.8522 9.05647 51.8741 9.1256 51.8765 9.18907L51.8557 9.31253C51.8188 9.40007 51.7322 9.46887 51.61 9.50533C51.6092 9.502 48.0317 9.5096 48.0317 9.5096Z" fill="#FEFEFE"/>
<path d="M50.3328 5.21903C50.2693 5.32914 50.2878 5.4796 50.3828 5.64377L52.1983 8.77073C52.2958 8.9382 52.4397 9.04207 52.6034 9.0634C52.7594 9.0832 52.9204 9.02187 53.0581 8.8906C53.075 8.86807 54.8716 5.74349 54.8716 5.74349C54.8808 5.71723 54.9026 5.53563 54.9026 5.53563C54.8982 5.42572 54.8628 5.32405 54.7994 5.24255C54.699 5.11129 54.5363 5.03998 54.3424 5.04037L50.7244 5.04801C50.535 5.04938 50.3954 5.10953 50.3328 5.21903ZM50.5544 5.54386C50.5126 5.47215 50.4968 5.41455 50.4948 5.37341C50.4938 5.34873 50.4982 5.33032 50.5044 5.31778C50.5234 5.28564 50.5926 5.24763 50.7244 5.24706L54.3424 5.23883C54.4737 5.23883 54.5802 5.28329 54.6428 5.36342C54.6806 5.41338 54.701 5.47372 54.7043 5.54386L54.6882 5.6712C54.683 5.67218 52.9032 8.76913 52.9032 8.76913C52.8275 8.83593 52.7238 8.87867 52.6285 8.86653C52.5271 8.8538 52.4356 8.78407 52.3702 8.6712L50.5544 5.54386Z" fill="#FEFEFE"/>
<mask id="mask1_512_7423" style="mask-type:luminance" maskUnits="userSpaceOnUse" x="44" y="0" width="41" height="10">
<path d="M84.0774 0H44.6667V9.99147H84.0774V0Z" fill="white"/>
</mask>
<g mask="url(#mask1_512_7423)">
<path d="M57.7612 5.15495L58.9739 7.9968L58.102 7.9984L57.8708 7.52607L56.3916 7.5284L56.1614 8.00213L55.2895 8.00327L56.4894 5.15769L57.7612 5.15495ZM57.0671 5.79283L56.6683 6.7918L57.5873 6.7904L57.1859 5.79283H57.0671Z" fill="#FEFEFE"/>
<path d="M61.4963 5.14844C61.8559 5.14844 62.2432 5.19919 62.2442 5.9509C62.2452 6.26495 62.1299 6.46065 61.9975 6.53216C62.2214 6.64697 62.3337 6.8576 62.3347 7.20333C62.3353 7.7846 62.1181 7.99153 61.5899 7.99207L59.3335 7.9964L59.3289 5.15257L61.4963 5.14844ZM60.0764 6.22067L61.3999 6.21871C61.5128 6.21871 61.5865 6.16659 61.5859 6.02769C61.5859 5.88487 61.5108 5.83668 61.3993 5.83687L60.0762 5.83922L60.0764 6.22067ZM60.0789 7.3066L61.372 7.3046C61.5005 7.3046 61.5883 7.2286 61.5883 7.08973C61.5879 6.8944 61.4991 6.8552 61.3712 6.8552L60.0782 6.8572L60.0789 7.3066Z" fill="#FEFEFE"/>
<path d="M62.8198 5.14643L65.706 5.14193L65.7077 5.87797L64.639 5.87972L64.6423 7.98773L63.8959 7.98887L63.8926 5.88109L62.8204 5.88246L62.8198 5.14643Z" fill="#FEFEFE"/>
<path d="M67.94 8.02253C66.3687 8.02513 66.3384 7.92947 66.3354 6.56539C66.3337 5.20516 66.3639 5.10191 67.9351 5.09899C69.4993 5.09683 69.54 5.20007 69.542 6.56028C69.5447 7.9162 69.5033 8.02 67.94 8.02253ZM67.9391 7.28653C68.7933 7.28553 68.7967 7.28147 68.7953 6.56107C68.794 5.83756 68.7913 5.83366 67.9394 5.83521C67.0851 5.83619 67.0816 5.84032 67.0822 6.564C67.0837 7.28433 67.0868 7.28787 67.9391 7.28653Z" fill="#FEFEFE"/>
<path d="M72.958 6.22347L72.2107 6.22464C72.2107 5.91079 72.1494 5.82733 71.468 5.82851C70.7347 5.82949 70.7314 5.8534 70.7327 6.5573C70.734 7.26513 70.7374 7.2812 71.47 7.2802C72.142 7.27927 72.2134 7.21927 72.2127 6.88133L72.9587 6.8794C72.96 7.8546 72.9134 8.01313 71.4714 8.01567C70.0634 8.0182 69.9887 7.8946 69.9867 6.55435C69.984 5.22216 70.0587 5.09462 71.4674 5.09247C72.8954 5.08992 72.9567 5.25704 72.958 6.22347Z" fill="#FEFEFE"/>
<path d="M73.5154 5.1297L76.4027 5.125L76.404 5.86104L75.3347 5.863L75.3387 7.971L74.592 7.972L74.588 5.86398L73.5167 5.86535L73.5154 5.1297Z" fill="#FEFEFE"/>
<path d="M79.29 5.11979L80.502 7.96187L79.6314 7.9632L79.3987 7.49033L77.9207 7.49267L77.69 7.9662L76.8187 7.96753L78.018 5.12194L79.29 5.11979ZM78.596 5.75767L78.1967 6.7564L79.116 6.75507L78.7147 5.75689L78.596 5.75767Z" fill="#FEFEFE"/>
<path d="M80.932 5.11668L83.8187 5.11198L83.8207 5.84783L82.7513 5.84977L82.7547 7.9578L82.0087 7.9588L82.0053 5.85135L80.9327 5.85271L80.932 5.11668Z" fill="#FEFEFE"/>
<path d="M55.4511 9.98433L55.218 9.98473L55.6648 8.79353L55.8828 8.793L56.334 9.98273L56.1009 9.98293L56.0142 9.73333L55.5374 9.73373L55.4511 9.98433ZM55.9556 9.55333L55.7748 9.02453L55.5946 9.55353L55.9556 9.55333Z" fill="#FEFEFE"/>
<path d="M56.8239 9.98133H56.6068L56.6048 8.79153L56.8219 8.79113L56.8233 9.2672L57.354 9.2668L57.3536 8.7906L57.5717 8.79033L57.573 9.98013L57.355 9.98053L57.354 9.44667L56.8233 9.44787L56.8239 9.98133Z" fill="#FEFEFE"/>
<path d="M58.0787 9.97973L57.8452 9.97993L58.2924 8.7886L58.511 8.7884L58.9618 9.9784H58.7287L58.6414 9.7286L58.1656 9.72933L58.0787 9.97973ZM58.5838 9.54873L58.4024 9.02033L58.2226 9.54893L58.5838 9.54873Z" fill="#FEFEFE"/>
<path d="M59.0746 9.7968C59.3348 9.8422 59.3416 9.49507 59.3406 9.25413L59.3402 8.78627L60.1544 8.78453L60.1573 9.97527L59.9398 9.97567L59.9379 8.96513L59.5579 8.96573L59.5585 9.3178C59.5588 9.61733 59.5298 10.0493 59.0748 9.977L59.0746 9.7968Z" fill="#FEFEFE"/>
<path d="M61.3631 8.7836L61.5764 8.7832L61.5778 9.97353L61.3597 9.97373L61.3584 9.10333L60.7934 9.97493L60.5806 9.97533L60.5786 8.7846L60.7963 8.784L60.7976 9.6552L61.3631 8.7836Z" fill="#FEFEFE"/>
<path d="M61.8766 8.96307V8.7828L62.8435 8.78127L62.8439 8.96167L62.4691 8.96247L62.4712 9.972L62.2531 9.9728L62.2511 8.96247L61.8766 8.96307Z" fill="#FEFEFE"/>
<path d="M63.9291 8.78013L64.1424 8.77993L64.1445 9.96973H63.9267L63.9254 9.09987L63.3597 9.97127H63.1474L63.1445 8.78153L63.3625 8.78113L63.3639 9.65173L63.9291 8.78013Z" fill="#FEFEFE"/>
<path d="M64.7381 8.77827L64.739 9.09953C64.739 9.2134 64.7459 9.2986 64.9898 9.298C65.0847 9.2976 65.1883 9.28747 65.2059 9.28547L65.2044 8.77707L65.4224 8.77667L65.4244 9.96747L65.207 9.9678L65.2059 9.46633C65.1389 9.4712 65.0386 9.47807 64.9626 9.47807C64.7072 9.4788 64.5214 9.41593 64.5214 9.14873L64.5206 8.77827H64.7381Z" fill="#FEFEFE"/>
<path d="M66.671 9.26553V9.4454L66.0652 9.4462L66.0658 9.78687L66.7602 9.78567L66.7606 9.96573L65.848 9.96713L65.8462 8.77653L66.7398 8.7754L66.7404 8.9554L66.0643 8.9562L66.0648 9.26553H66.671Z" fill="#FEFEFE"/>
<path d="M68.1058 9.55653C68.0902 9.7368 67.9948 9.99907 67.5916 9.99947C67.4995 9.99947 67.0008 9.99187 66.9997 9.39C66.9994 8.9 67.2817 8.7384 67.5779 8.7376C67.9861 8.73667 68.0782 8.9868 68.0892 9.15647L67.8728 9.15727C67.8584 9.05813 67.8002 8.91767 67.5777 8.91807C67.3122 8.91807 67.2321 9.13453 67.2326 9.381C67.233 9.66 67.3868 9.81947 67.6005 9.81947C67.7988 9.81847 67.8828 9.68447 67.8899 9.55693L68.1058 9.55653Z" fill="#FEFEFE"/>
<path d="M69.1867 8.77107L69.4793 8.7708L68.9867 9.26453L69.514 9.9604L69.2213 9.9614L68.8273 9.41127L68.6673 9.56627L68.668 9.9622L68.4494 9.96273L68.4479 8.7724L68.6661 8.772L68.6667 9.30747L69.1867 8.77107Z" fill="#FEFEFE"/>
<path d="M70.3 8.73307C70.404 8.73267 70.8834 8.7454 70.8847 9.36253C70.8854 9.98007 70.4054 9.99453 70.3014 9.99473C70.1974 9.99493 69.7173 9.9822 69.7173 9.36447C69.716 8.7476 70.1967 8.73307 70.3 8.73307ZM70.3014 9.81453C70.596 9.81393 70.652 9.54687 70.6513 9.36313C70.6507 9.17973 70.594 8.91273 70.3 8.91293C70.0053 8.91373 69.95 9.18093 69.95 9.36433C69.95 9.54807 70.0074 9.81467 70.3014 9.81453Z" fill="#FEFEFE"/>
<path d="M72.064 9.25647V9.43627L71.4587 9.43747V9.7776L72.1534 9.7764V9.9566L71.242 9.958L71.24 8.76787L72.1334 8.76627L72.134 8.94633L71.4574 8.94747L71.4587 9.2572L72.064 9.25647Z" fill="#FEFEFE"/>
<path d="M73.0747 9.9544L72.8414 9.955L73.2887 8.76387L73.5067 8.76367L73.958 9.95307L73.724 9.9534L73.6387 9.70387L73.1614 9.70407L73.0747 9.9544ZM73.5794 9.5236L73.398 8.9952L73.2187 9.5244L73.5794 9.5236Z" fill="#FEFEFE"/>
<path d="M74.448 9.95287L74.23 9.95307L74.228 8.76307L75.0074 8.76173L75.008 8.94193L74.446 8.94273L74.448 9.95287Z" fill="#FEFEFE"/>
<path d="M76.1327 9.24867L76.1334 9.42873L75.5274 9.42973L75.528 9.7702L76.2234 9.769V9.94887L75.3107 9.95047L75.3087 8.76047L76.202 8.75913V8.93893L75.526 8.94013L75.528 9.24967L76.1327 9.24867Z" fill="#FEFEFE"/>
<path d="M76.7494 9.94907L76.5314 9.94927L76.5294 8.75873L76.7467 8.75813L76.7474 9.2346L77.2787 9.2334L77.2774 8.75713H77.4954L77.4974 9.94733L77.2794 9.94793L77.2787 9.41367L76.748 9.41467L76.7494 9.94907Z" fill="#FEFEFE"/>
<path d="M77.7974 8.9366V8.7564L78.7634 8.7552V8.93507L78.3894 8.93627L78.3907 9.94613L78.1734 9.94633L78.172 8.9364L77.7974 8.9366Z" fill="#FEFEFE"/>
<path d="M80.0907 9.5366C80.0734 9.71747 79.9794 9.9796 79.5767 9.97973C79.484 9.97993 78.9854 9.97253 78.9847 9.37027C78.9834 8.88073 79.2654 8.71867 79.5627 8.71813C79.9707 8.71733 80.0627 8.96713 80.0734 9.13773H79.8567C79.8434 9.0392 79.7854 8.89773 79.5627 8.89853C79.2974 8.89873 79.2167 9.115 79.218 9.36147C79.218 9.64047 79.372 9.80013 79.586 9.80013C79.784 9.79953 79.868 9.66473 79.8747 9.5374L80.0907 9.5366Z" fill="#FEFEFE"/>
<path d="M80.3114 8.93293L80.3107 8.75227L81.2774 8.75133L81.278 8.93133L80.9034 8.93173L80.906 9.94167L80.6874 9.94207L80.686 8.93193L80.3114 8.93293Z" fill="#FEFEFE"/>
<path d="M82.1407 8.74933C82.4433 8.74913 82.504 8.9188 82.504 9.04947C82.504 9.18113 82.4227 9.28493 82.3067 9.30573V9.30867C82.406 9.32553 82.5533 9.39313 82.5533 9.60607C82.5553 9.9068 82.2973 9.93973 82.1187 9.93987L81.5813 9.94107L81.5787 8.75033L82.1407 8.74933ZM81.7973 9.23307L82.0853 9.23267C82.206 9.23227 82.2793 9.19507 82.2793 9.0912C82.278 8.93307 82.1253 8.9294 82.0793 8.9294L81.7973 8.9302V9.23307ZM81.798 9.76007L82.0967 9.75987C82.2293 9.75887 82.3293 9.72673 82.3293 9.58213C82.3293 9.42227 82.1907 9.41267 82.1007 9.41287L81.798 9.41327V9.76007Z" fill="#FEFEFE"/>
<path d="M83.4447 8.71227C83.5494 8.71227 84.0287 8.7252 84.03 9.34193C84.0307 9.9596 83.5514 9.97413 83.4474 9.97413C83.3434 9.97413 82.8627 9.961 82.862 9.34467C82.8614 8.72693 83.3414 8.71267 83.4447 8.71227ZM83.4474 9.79407C83.7414 9.79307 83.7967 9.52647 83.7967 9.34267C83.796 9.15913 83.74 8.89193 83.4454 8.89267C83.1507 8.89307 83.096 9.16007 83.096 9.34407C83.096 9.52767 83.152 9.79407 83.4474 9.79407Z" fill="#FEFEFE"/>
<path d="M55.5926 3.66661L53.7624 0.509101C53.6277 0.375098 53.4644 0.313386 53.304 0.334936C53.1442 0.35629 53.0036 0.458752 52.9079 0.623905L51.106 3.75907C51.0138 3.91952 50.996 4.06645 51.0586 4.17303C51.1197 4.27921 51.2568 4.3372 51.4424 4.33699L55.0598 4.32858C55.2514 4.32858 55.4098 4.25688 55.5082 4.12836C55.6061 4.00004 55.6332 3.82841 55.5926 3.66661Z" fill="#FEFEFE"/>
<path d="M47.5569 0.380048L47.5204 0.586931C47.5243 0.683907 47.5553 0.781667 47.6102 0.877267L49.4263 4.00342C49.5217 4.16721 49.6439 4.25751 49.7704 4.25751C49.8969 4.25693 50.019 4.16643 50.1131 4.00225L51.915 0.867473C51.9769 0.759727 52.0075 0.645508 52.0027 0.537756L51.9658 0.370645C51.9062 0.225475 51.7735 0.116548 51.5931 0.063652C51.5639 0.0595378 47.9571 0.067766 47.9571 0.067766C47.7489 0.125168 47.6165 0.234485 47.5569 0.380048ZM49.7698 4.05905C49.7319 4.05867 49.6645 4.01831 49.5986 3.90428L47.7822 0.777353C47.7439 0.711527 47.722 0.642568 47.7202 0.578899L47.74 0.455865C47.7765 0.366922 47.8641 0.298157 47.9853 0.262306C47.9867 0.265833 51.5644 0.257799 51.5644 0.257799C51.6584 0.289341 51.7456 0.358106 51.7825 0.44705L51.8039 0.545593C51.8068 0.61612 51.786 0.6937 51.7423 0.768933L49.9408 3.90311C49.8745 4.01793 49.807 4.05867 49.7698 4.05905Z" fill="#FEFEFE"/>
<path d="M46.5176 0.866779C46.5002 0.889112 44.7045 4.01213 44.7045 4.01213C44.6939 4.03897 44.6736 4.22038 44.6736 4.22038C44.6784 4.33068 44.7137 4.43157 44.7767 4.51308C44.877 4.64395 45.0398 4.71603 45.2333 4.71525L48.8516 4.70702C49.0416 4.70663 49.1816 4.64571 49.2438 4.53619L49.2801 4.37436L49.1938 4.11166L47.3774 0.986093C47.2809 0.818586 47.1366 0.714559 46.9727 0.692613C46.8162 0.672239 46.6552 0.733952 46.5176 0.866779ZM46.6729 0.987266C46.7484 0.919479 46.8517 0.877552 46.9472 0.889899C47.0486 0.903026 47.1405 0.972573 47.206 1.08561L49.0224 4.21176L49.0816 4.38299L49.0709 4.43764C49.0524 4.47076 48.9836 4.50856 48.8513 4.50897L45.2333 4.51679C45.1024 4.51719 44.9959 4.47311 44.9343 4.39259C44.8961 4.34341 44.8753 4.28249 44.8724 4.21255L44.8884 4.08481C44.8932 4.08461 46.6729 0.987266 46.6729 0.987266Z" fill="#FEFEFE"/>
<path d="M44.8192 5.29317C44.7468 5.38622 44.7126 5.50475 44.7174 5.63307L44.7378 5.76629C44.7496 5.79313 46.0231 7.98753 46.0231 7.98753L46.5596 8.90987C46.7146 9.06427 46.8766 9.125 47.0321 9.104C47.1968 9.08167 47.3393 8.97727 47.4367 8.8092L49.2377 5.67519C49.3312 5.51337 49.3487 5.35841 49.2867 5.25045C49.2222 5.14054 49.0832 5.08059 48.8932 5.08139L45.2753 5.08942C45.0814 5.08981 44.9196 5.16191 44.8192 5.29317ZM44.9163 5.62542C44.9133 5.54335 44.9341 5.47026 44.9772 5.41405C45.0388 5.33313 45.1451 5.28827 45.2757 5.28788L48.8942 5.28003C49.027 5.27965 49.0951 5.31765 49.1145 5.35036C49.1199 5.36035 49.1234 5.37447 49.1248 5.39249C49.1262 5.43461 49.1116 5.49711 49.0661 5.57547L47.2636 8.71007C47.1988 8.82367 47.1072 8.8936 47.0058 8.90713C46.9113 8.92007 46.8075 8.87753 46.7141 8.7888C46.7131 8.7802 46.195 7.8872 46.195 7.8872L44.921 5.69361C44.9318 5.72025 44.9163 5.62542 44.9163 5.62542Z" fill="#FEFEFE"/>
<path d="M49.4834 5.76589L47.6814 8.89987C47.6195 9.0076 47.5889 9.1218 47.5932 9.2292L47.63 9.39653C47.6902 9.54207 47.823 9.651 48.0048 9.70407C48.0324 9.7078 51.6388 9.69973 51.6388 9.69973C51.8476 9.6418 51.98 9.53227 52.0396 9.38727L52.076 9.181C52.0721 9.08307 52.0415 8.98587 51.9858 8.89047L50.1704 5.76411C50.0749 5.59993 49.9528 5.51042 49.8263 5.51042C49.6996 5.51021 49.5778 5.60073 49.4834 5.76589ZM48.032 9.50893C47.9375 9.4774 47.8508 9.40867 47.814 9.32007L47.7922 9.22113C47.7898 9.1512 47.81 9.0742 47.8542 8.9988L49.6561 5.86443C49.722 5.74941 49.7894 5.70867 49.8267 5.70867C49.8645 5.70867 49.9314 5.74883 49.9982 5.86363L51.8142 8.99C51.8525 9.0558 51.8744 9.125 51.8768 9.18847L51.856 9.31187C51.8192 9.39947 51.7325 9.4682 51.6104 9.50467C51.6096 9.50133 48.032 9.50893 48.032 9.50893Z" fill="#FEFEFE"/>
<path d="M50.3331 5.21903C50.2696 5.32914 50.2881 5.4796 50.3831 5.64377L52.1986 8.77073C52.296 8.9382 52.4399 9.04207 52.6037 9.0634C52.7597 9.0832 52.9207 9.02187 53.0584 8.8906C53.0752 8.86807 54.8719 5.74349 54.8719 5.74349C54.8811 5.71723 54.9029 5.53563 54.9029 5.53563C54.8985 5.42572 54.8631 5.32405 54.7997 5.24255C54.6993 5.11129 54.5366 5.03998 54.3427 5.04037L50.7247 5.04801C50.5353 5.04938 50.3957 5.10953 50.3331 5.21903ZM50.5547 5.54386C50.5129 5.47215 50.4971 5.41455 50.4951 5.37341C50.4941 5.34873 50.4985 5.33032 50.5047 5.31778C50.5237 5.28564 50.5929 5.24763 50.7247 5.24706L54.3427 5.23883C54.474 5.23883 54.5805 5.28329 54.6431 5.36342C54.6809 5.41338 54.7013 5.47372 54.7046 5.54386L54.6885 5.6712C54.6832 5.67218 52.9035 8.76913 52.9035 8.76913C52.8278 8.83593 52.7241 8.87867 52.6288 8.86653C52.5274 8.8538 52.4359 8.78407 52.3705 8.6712L50.5547 5.54386Z" fill="#FEFEFE"/>
</g>
</g>
<mask id="mask2_512_7423" style="mask-type:luminance" maskUnits="userSpaceOnUse" x="89" y="0" width="47" height="10">
<path d="M135.357 0H89.4106V10H135.357V0Z" fill="white"/>
</mask>
<g mask="url(#mask2_512_7423)">
<path d="M118.486 7.48407L119.339 5.02869L120.185 7.48407H118.486ZM118.827 4.12565L116.857 9.56213H117.767L118.225 8.24347H120.443L120.901 9.56213H121.827L119.857 4.12565H118.827Z" fill="#FEFEFE"/>
<path d="M126.101 6.40372H127.32V9.562H128.111V6.40372H129.331V5.7487H126.101V6.40372Z" fill="#FEFEFE"/>
<path d="M131.586 8.93053C130.929 8.93053 130.399 8.36267 130.399 7.6588C130.399 6.95493 130.929 6.37942 131.586 6.37942C132.243 6.37942 132.773 6.954 132.773 7.6588C132.773 8.36367 132.243 8.93053 131.586 8.93053ZM131.586 5.66024C131.196 5.66439 130.817 5.78479 130.495 6.00633C130.173 6.22786 129.923 6.54059 129.777 6.9052C129.631 7.26987 129.594 7.67007 129.673 8.05547C129.751 8.44093 129.94 8.7944 130.217 9.0714C130.493 9.34847 130.845 9.53667 131.227 9.61233C131.609 9.68807 132.005 9.64787 132.364 9.49693C132.724 9.34593 133.031 9.09087 133.248 8.7638C133.464 8.43673 133.58 8.05227 133.581 7.6588C133.581 7.39487 133.529 7.13353 133.429 6.88987C133.329 6.64617 133.181 6.42502 132.996 6.23919C132.81 6.05335 132.59 5.90651 132.348 5.80713C132.106 5.70775 131.847 5.65782 131.586 5.66024Z" fill="#FEFEFE"/>
<path d="M124.304 8.9462H123.212V7.91573H124.304C124.683 7.91573 124.921 8.10727 124.921 8.4348C124.921 8.76233 124.685 8.9462 124.304 8.9462ZM123.212 6.36055H124.225C124.621 6.36055 124.835 6.54346 124.835 6.8394C124.835 7.13527 124.621 7.3278 124.225 7.3278H123.212V6.36055ZM125.128 7.5758C125.279 7.49567 125.406 7.37487 125.494 7.22673C125.582 7.07853 125.628 6.90873 125.627 6.73593C125.627 6.15179 125.254 5.74479 124.281 5.74479H122.421V9.56193H124.328C125.254 9.56193 125.729 9.06687 125.729 8.45107C125.735 8.25993 125.679 8.072 125.571 7.91507C125.463 7.75813 125.307 7.64053 125.128 7.5796" fill="#FEFEFE"/>
<path d="M93.1407 6.15495C92.7547 6.15477 92.3767 6.27037 92.0553 6.48713C91.734 6.70387 91.4833 7.01207 91.3353 7.37267C91.1873 7.73333 91.1487 8.1302 91.224 8.51313C91.2993 8.896 91.4853 9.2478 91.758 9.52393C92.0313 9.80007 92.3793 9.98813 92.7587 10.0643C93.1373 10.1406 93.5307 10.1015 93.8873 9.9522C94.2447 9.80287 94.5493 9.54987 94.764 9.22527C94.9787 8.90067 95.0933 8.51907 95.0933 8.12867C95.0933 7.60533 94.888 7.10347 94.522 6.7334C94.1553 6.36326 93.6587 6.15521 93.1407 6.15495Z" fill="#F68E57"/>
<path d="M96.0707 7.21C96.3853 7.2102 96.692 7.1162 96.954 6.94C97.2153 6.76373 97.4187 6.51313 97.5393 6.21987C97.6593 5.9266 97.6913 5.60387 97.63 5.29247C97.5687 4.98107 97.4173 4.695 97.1953 4.47042C96.9733 4.24587 96.69 4.09292 96.382 4.03091C96.074 3.96891 95.7547 4.00063 95.464 4.12208C95.174 4.24353 94.9253 4.44925 94.7507 4.7132C94.5767 4.97718 94.4833 5.28751 94.4833 5.605C94.484 6.03027 94.6513 6.43791 94.9487 6.73873C95.2467 7.03953 95.65 7.209 96.0707 7.21Z" fill="#FEFEFE"/>
<path d="M96.5293 7.46747C96.296 7.46747 96.068 7.5374 95.8733 7.66854C95.6793 7.79967 95.528 7.986 95.4387 8.20407C95.3493 8.42207 95.326 8.662 95.3713 8.89347C95.4167 9.12494 95.5293 9.33754 95.6947 9.5044C95.8593 9.67127 96.07 9.78493 96.2993 9.83094C96.528 9.877 96.766 9.85334 96.9813 9.76307C97.1973 9.67273 97.382 9.5198 97.5113 9.3236C97.6413 9.12734 97.7107 8.89667 97.7107 8.66067C97.7113 8.50387 97.6807 8.34854 97.6213 8.2036C97.562 8.05867 97.4753 7.92694 97.3653 7.81607C97.256 7.7052 97.1253 7.61734 96.982 7.55754C96.8387 7.49767 96.6847 7.46707 96.5293 7.46747Z" fill="#F68E57"/>
<path d="M93.5147 5.89725C93.6587 5.89725 93.8 5.85394 93.9207 5.77281C94.0407 5.69167 94.134 5.57636 94.1893 5.44145C94.2447 5.30654 94.2593 5.15809 94.2313 5.01487C94.2033 4.87165 94.1333 4.74009 94.0313 4.63683C93.9287 4.53356 93.7987 4.46325 93.6573 4.43476C93.5153 4.40627 93.368 4.42089 93.2347 4.47678C93.1013 4.53265 92.9873 4.62729 92.9067 4.74871C92.8267 4.87014 92.7833 5.01287 92.7833 5.15891C92.7833 5.35471 92.8607 5.54251 92.998 5.68098C93.1347 5.81945 93.3207 5.89725 93.5147 5.89725Z" fill="#FEFEFE"/>
<path d="M113.041 8.61747C112.853 8.61747 112.67 8.56127 112.514 8.45607C112.358 8.3508 112.237 8.20127 112.165 8.02627C112.093 7.85127 112.074 7.65873 112.111 7.473C112.147 7.2872 112.238 7.1166 112.371 6.98267C112.503 6.84873 112.672 6.75753 112.855 6.7206C113.039 6.6836 113.23 6.7026 113.403 6.77507C113.577 6.84753 113.725 6.97027 113.829 7.1278C113.933 7.28527 113.989 7.4704 113.989 7.6598C113.989 7.78553 113.964 7.91007 113.916 8.02627C113.869 8.14247 113.799 8.248 113.711 8.33693C113.623 8.42587 113.518 8.4964 113.403 8.54453C113.289 8.59267 113.165 8.61747 113.041 8.61747ZM113.041 5.68229C112.654 5.68229 112.277 5.79805 111.955 6.01491C111.634 6.23178 111.383 6.54003 111.236 6.90067C111.088 7.26133 111.049 7.65813 111.125 8.041C111.2 8.42387 111.386 8.77553 111.659 9.0516C111.933 9.3276 112.281 9.5156 112.659 9.59173C113.039 9.66787 113.431 9.6288 113.788 9.4794C114.145 9.33007 114.45 9.07707 114.665 8.75247C114.879 8.42793 114.994 8.04633 114.994 7.656C114.994 7.3968 114.943 7.14013 114.845 6.90067C114.747 6.66123 114.603 6.44365 114.422 6.26036C114.241 6.07709 114.025 5.93171 113.788 5.83253C113.551 5.73333 113.297 5.68229 113.041 5.68229Z" fill="#FEFEFE"/>
<path d="M104.776 8.1626L103.885 5.7513H102.831L104.267 9.5608H105.312L106.721 5.7513H105.668L104.776 8.1626Z" fill="#FEFEFE"/>
<path d="M110.034 4.73959H109.032V5.75178H108.446V6.66154H109.032V8.2828C109.032 9.2012 109.533 9.59574 110.238 9.59574C110.477 9.5994 110.714 9.55307 110.935 9.45973V8.51453C110.815 8.55893 110.689 8.58227 110.561 8.58353C110.255 8.58353 110.034 8.46287 110.034 8.05107V6.66154H110.935V5.75178H110.034V4.73959Z" fill="#FEFEFE"/>
<path d="M107.545 4.00113C107.355 4.00801 107.177 4.08877 107.045 4.22639C106.914 4.36401 106.84 4.54776 106.84 4.73899C106.84 4.93021 106.914 5.11396 107.045 5.25159C107.177 5.38921 107.355 5.46996 107.545 5.47685C107.643 5.48041 107.741 5.46399 107.833 5.42849C107.924 5.39303 108.008 5.33925 108.079 5.27039C108.149 5.20152 108.205 5.11896 108.244 5.02767C108.282 4.93636 108.302 4.83819 108.302 4.73899C108.302 4.63979 108.282 4.54161 108.244 4.45032C108.205 4.35901 108.149 4.27645 108.079 4.20759C108.008 4.13872 107.924 4.08494 107.833 4.04947C107.741 4.014 107.643 3.99756 107.545 4.00113Z" fill="#FEFEFE"/>
<path d="M108.046 5.7513H107.044V9.56173H108.046V5.7513Z" fill="#FEFEFE"/>
<path d="M100.133 7.43387L100.855 5.52629L101.571 7.43387H100.133ZM100.287 4.13867L98.228 9.56173H99.3327L99.7587 8.42987H101.939L102.364 9.56173H103.459L101.413 4.13867H100.287Z" fill="#FEFEFE"/>
</g>
</g>
<defs>
<clipPath id="clip0_512_7423">
<rect width="134" height="40" fill="white"/>
</clipPath>
</defs>
</svg>
