<svg width="270" height="77" viewBox="0 0 270 77" fill="none" xmlns="http://www.w3.org/2000/svg">
<mask id="mask0_512_7921" style="mask-type:luminance" maskUnits="userSpaceOnUse" x="0" y="0" width="270" height="77">
<path d="M270 0.75H0V76.7499H270V0.75Z" fill="white"/>
</mask>
<g mask="url(#mask0_512_7921)">
<path d="M257.999 1.75146H12C5.92486 1.75146 1 6.67632 1 12.7514V64.7514C1 70.8266 5.92486 75.7514 12 75.7514H257.999C264.074 75.7514 268.999 70.8266 268.999 64.7514V12.7514C268.999 6.67632 264.074 1.75146 257.999 1.75146Z" fill="black" stroke="#252C2C" stroke-width="1.33333"/>
<path d="M65.5829 38.2099C65.6045 36.5407 66.0479 34.9039 66.8718 33.4521C67.6959 32.0001 68.8739 30.7803 70.296 29.9059C69.3926 28.6156 68.2007 27.5536 66.815 26.8045C65.4293 26.0554 63.8882 25.6398 62.3136 25.5906C58.9553 25.2381 55.6994 27.6001 53.9879 27.6001C52.2434 27.6001 49.6083 25.6255 46.7709 25.6839C44.9355 25.7433 43.1469 26.277 41.5791 27.2331C40.0113 28.1892 38.718 29.5351 37.8251 31.1397C33.957 37.8364 36.8423 47.6785 40.5474 53.0917C42.4013 55.7425 44.5679 58.7034 47.4027 58.5984C50.1768 58.4833 51.2129 56.8294 54.5615 56.8294C57.879 56.8294 58.8512 58.5984 61.7435 58.5316C64.7202 58.4833 66.5958 55.8691 68.3846 53.1933C69.7164 51.3046 70.7414 49.2172 71.4213 47.0083C69.692 46.2769 68.2161 45.0525 67.1778 43.488C66.1397 41.9233 65.585 40.0878 65.5829 38.2099Z" fill="white"/>
<path d="M60.1196 22.0306C61.7427 20.0821 62.5424 17.5779 62.3487 15.0493C59.8691 15.3097 57.5786 16.4949 55.9335 18.3685C55.1292 19.2838 54.5133 20.3488 54.1208 21.5023C53.7282 22.6558 53.567 23.8755 53.6462 25.0914C54.8864 25.1041 56.1134 24.8353 57.2348 24.3051C58.356 23.775 59.3424 22.9972 60.1196 22.0306Z" fill="white"/>
<path d="M100.65 51.8878H91.1828L88.9094 58.6006H84.8997L93.8664 33.7646H98.0323L106.999 58.6006H102.921L100.65 51.8878ZM92.1633 48.7901H99.6672L95.9681 37.8955H95.8646L92.1633 48.7901Z" fill="white"/>
<path d="M126.364 49.5483C126.364 55.1753 123.353 58.7904 118.808 58.7904C117.657 58.8507 116.511 58.5855 115.504 58.0251C114.496 57.4649 113.667 56.6322 113.111 55.6224H113.025V64.5912H109.308V40.4936H112.905V43.5053H112.974C113.556 42.5004 114.399 41.672 115.415 41.1083C116.43 40.5446 117.579 40.2668 118.739 40.3041C123.335 40.3041 126.364 43.937 126.364 49.5483ZM122.544 49.5483C122.544 45.8823 120.649 43.4721 117.759 43.4721C114.919 43.4721 113.009 45.933 113.009 49.5483C113.009 53.1968 114.919 55.6401 117.759 55.6401C120.65 55.6401 122.544 53.2475 122.544 49.5483Z" fill="white"/>
<path d="M146.294 49.5483C146.294 55.1753 143.282 58.7904 138.737 58.7904C137.586 58.8507 136.441 58.5855 135.434 58.0251C134.426 57.4649 133.597 56.6322 133.04 55.6224H132.954V64.5912H129.237V40.4936H132.835V43.5053H132.903C133.485 42.5004 134.329 41.672 135.344 41.1083C136.359 40.5446 137.508 40.2668 138.669 40.3041C143.265 40.3041 146.294 43.937 146.294 49.5483ZM142.474 49.5483C142.474 45.8823 140.579 43.4721 137.689 43.4721C134.849 43.4721 132.939 45.933 132.939 49.5483C132.939 53.1968 134.849 55.6401 137.689 55.6401C140.579 55.6401 142.474 53.2475 142.474 49.5483Z" fill="white"/>
<path d="M159.467 51.6807C159.741 54.1437 162.134 55.7607 165.404 55.7607C168.536 55.7607 170.79 54.1436 170.79 51.9228C170.79 49.9952 169.431 48.8409 166.212 48.0498L162.993 47.2745C158.433 46.1729 156.315 44.04 156.315 40.5791C156.315 36.294 160.05 33.3506 165.353 33.3506C170.601 33.3506 174.198 36.294 174.32 40.5791H170.568C170.343 38.1006 168.294 36.6045 165.3 36.6045C162.306 36.6045 160.257 38.1182 160.257 40.3214C160.257 42.0771 161.565 43.1103 164.766 43.9013L167.504 44.5733C172.599 45.7782 174.716 47.8253 174.716 51.458C174.716 56.1044 171.015 59.0145 165.128 59.0145C159.62 59.0145 155.901 56.1728 155.661 51.6806L159.467 51.6807Z" fill="white"/>
<path d="M182.737 36.208V40.4932H186.18V43.4367H182.737V53.419C182.737 54.9697 183.427 55.6924 184.941 55.6924C185.349 55.6854 185.757 55.6566 186.163 55.6065V58.5322C185.482 58.6594 184.791 58.717 184.098 58.7041C180.432 58.7041 179.002 57.3271 179.002 53.8155V43.4367H176.37V40.4932H179.002V36.208H182.737Z" fill="white"/>
<path d="M188.175 49.5483C188.175 43.851 191.53 40.271 196.762 40.271C202.012 40.271 205.353 43.8509 205.353 49.5483C205.353 55.2612 202.03 58.8257 196.762 58.8257C191.497 58.8257 188.175 55.2612 188.175 49.5483ZM201.565 49.5483C201.565 45.6401 199.774 43.3335 196.762 43.3335C193.75 43.3335 191.962 45.6576 191.962 49.5483C191.962 53.4722 193.75 55.7612 196.762 55.7612C199.774 55.7612 201.565 53.4722 201.565 49.5483Z" fill="white"/>
<path d="M208.418 40.4934H211.962V43.5754H212.048C212.288 42.6129 212.851 41.7622 213.645 41.1664C214.438 40.5706 215.412 40.2661 216.403 40.3039C216.832 40.3024 217.258 40.3489 217.677 40.4425V43.9191C217.135 43.7539 216.572 43.678 216.008 43.6945C215.468 43.6726 214.929 43.7679 214.43 43.9737C213.929 44.1793 213.48 44.4909 213.112 44.8866C212.743 45.2824 212.466 45.7531 212.298 46.2664C212.128 46.7799 212.073 47.3236 212.135 47.8605V58.6008H208.418V40.4934Z" fill="white"/>
<path d="M234.813 53.2826C234.314 56.5697 231.112 58.8255 227.016 58.8255C221.749 58.8255 218.479 55.2963 218.479 49.6343C218.479 43.9545 221.766 40.271 226.86 40.271C231.87 40.271 235.02 43.7123 235.02 49.2026V50.4761H222.231V50.7006C222.173 51.3671 222.256 52.0383 222.477 52.67C222.696 53.3016 223.048 53.8793 223.509 54.3644C223.971 54.8495 224.529 55.2309 225.148 55.4835C225.768 55.7361 226.434 55.8542 227.103 55.8294C227.98 55.9118 228.862 55.7084 229.615 55.2495C230.368 54.7907 230.955 54.1009 231.283 53.2826H234.813ZM222.249 47.8784H231.301C231.334 47.2791 231.244 46.6796 231.034 46.1171C230.826 45.5547 230.502 45.0416 230.085 44.61C229.668 44.1786 229.167 43.8378 228.612 43.6095C228.057 43.3811 227.46 43.2698 226.86 43.2827C226.256 43.2791 225.655 43.3953 225.094 43.6248C224.535 43.8543 224.026 44.1924 223.597 44.6196C223.168 45.047 222.828 45.5549 222.597 46.1142C222.366 46.6736 222.247 47.2731 222.249 47.8784Z" fill="white"/>
<path d="M89.5215 20.1156H91.1172C91.3919 20.1498 91.6707 20.1269 91.9361 20.048C92.2013 19.9691 92.4474 19.836 92.6588 19.6574C92.8703 19.4786 93.0423 19.2581 93.1643 19.0095C93.2861 18.761 93.3552 18.4899 93.3672 18.2133C93.3672 17.1128 92.5391 16.4018 91.1348 16.4018C90.8534 16.3625 90.5669 16.38 90.2924 16.4532C90.0177 16.5264 89.7606 16.6539 89.5362 16.8281C89.3117 17.0024 89.1243 17.2197 88.9853 17.4677C88.8462 17.7155 88.7583 17.9886 88.7265 18.2709H86.9745C87.0047 17.7584 87.1401 17.2575 87.3722 16.7994C87.6044 16.3415 87.9282 15.936 88.3238 15.6087C88.7193 15.2813 89.1782 15.0389 89.6715 14.8963C90.1647 14.7539 90.6822 14.7145 91.1913 14.7807C93.5409 14.7807 95.1954 16.0961 95.1954 17.9897C95.2008 18.624 94.9886 19.2411 94.5941 19.7379C94.1996 20.2346 93.6465 20.5811 93.0273 20.7192V20.8598C93.7614 20.8923 94.4526 21.2142 94.95 21.755C95.4474 22.2957 95.7104 23.0114 95.6817 23.7456C95.6273 24.2733 95.4683 24.785 95.2136 25.2504C94.959 25.7159 94.614 26.126 94.1988 26.4564C93.7838 26.7867 93.3069 27.0311 92.7962 27.1748C92.2854 27.3185 91.7511 27.3588 91.2246 27.2934C90.6969 27.3654 90.1602 27.3303 89.6465 27.1904C89.1327 27.0504 88.6523 26.8085 88.2341 26.4791C87.8157 26.1495 87.468 25.7391 87.2118 25.2723C86.9555 24.8055 86.7957 24.2919 86.7422 23.7621H88.5215C88.6289 24.9038 89.6778 25.6401 91.2246 25.6401C92.7714 25.6401 93.7812 24.813 93.7812 23.6471C93.7812 22.4645 92.8301 21.7359 91.1679 21.7359H89.5215V20.1156Z" fill="white"/>
<path d="M97.7031 24.4576C97.7031 22.8364 98.9121 21.9019 101.053 21.7691L103.492 21.6284V20.8511C103.492 19.9 102.865 19.3628 101.648 19.3628C100.656 19.3628 99.9706 19.727 99.7714 20.3638H98.0508C98.2325 18.817 99.6894 17.8247 101.732 17.8247C103.99 17.8247 105.264 18.9487 105.264 20.8511V27.0044H103.551V25.7387H103.41C103.125 26.1928 102.724 26.5628 102.249 26.8112C101.773 27.0598 101.241 27.1775 100.705 27.1528C100.327 27.1921 99.9448 27.1517 99.5833 27.0344C99.2218 26.917 98.8888 26.7251 98.6061 26.4712C98.3232 26.2172 98.0967 25.9069 97.9413 25.5601C97.7857 25.2133 97.7046 24.8377 97.7031 24.4576ZM103.492 23.6879V22.9351L101.293 23.0756C100.053 23.1587 99.49 23.5805 99.49 24.3745C99.49 25.1851 100.193 25.6567 101.16 25.6567C101.443 25.6855 101.73 25.6568 102.002 25.5727C102.274 25.4885 102.526 25.3504 102.744 25.1668C102.961 24.983 103.14 24.7574 103.268 24.5035C103.397 24.2494 103.473 23.972 103.492 23.6879Z" fill="white"/>
<path d="M109.98 19.4946V27.0044H108.203V17.9985H114.133V19.4945L109.98 19.4946Z" fill="white"/>
<path d="M124.904 22.4974C124.904 25.3588 123.457 27.1527 121.184 27.1527C120.626 27.1909 120.068 27.0687 119.577 26.8008C119.086 26.5327 118.682 26.13 118.412 25.6401H118.271V29.9985H116.494V17.9985H118.205V19.4868H118.338C118.613 18.9796 119.022 18.5584 119.521 18.2694C120.02 17.9803 120.589 17.835 121.166 17.8491C123.457 17.8491 124.904 19.6351 124.904 22.4974ZM123.076 22.4974C123.076 20.5951 122.176 19.4457 120.67 19.4457C119.174 19.4457 118.238 20.6196 118.238 22.5052C118.238 24.3822 119.174 25.557 120.662 25.557C122.176 25.557 123.076 24.4077 123.076 22.4974Z" fill="white"/>
<path d="M127.271 30.23V28.6997C127.464 28.7241 127.658 28.7352 127.851 28.7328C128.23 28.7609 128.606 28.6481 128.906 28.4162C129.207 28.1843 129.411 27.8495 129.48 27.476L129.613 27.0375L126.353 17.9985H128.289L130.547 25.1517H130.687L132.937 17.9985H134.822L131.465 27.3764C130.695 29.5679 129.844 30.2709 128.008 30.2709C127.859 30.2709 127.437 30.2543 127.271 30.23Z" fill="white"/>
<path d="M136.207 24.4485H137.976C138.15 25.2424 138.894 25.6564 139.935 25.6564C141.119 25.6564 141.846 25.135 141.846 24.3244C141.846 23.4564 141.193 23.0422 139.935 23.0422H138.588V21.6615H139.912C140.986 21.6615 141.533 21.2484 141.533 20.4954C141.533 19.8343 141.004 19.3294 139.912 19.3294C138.918 19.3294 138.191 19.7512 138.076 20.4622H136.363C136.491 19.6453 136.935 18.9112 137.598 18.418C138.262 17.9247 139.093 17.7117 139.912 17.8245C142.053 17.8245 143.277 18.7923 143.277 20.3137C143.287 20.7375 143.151 21.1518 142.893 21.4873C142.634 21.823 142.268 22.0596 141.855 22.1575V22.2982C142.346 22.3615 142.797 22.6027 143.122 22.9764C143.446 23.3499 143.623 23.8296 143.617 24.3246C143.617 26.0365 142.16 27.1692 139.935 27.1692C137.969 27.1692 136.371 26.2678 136.207 24.4485Z" fill="white"/>
<path d="M146.177 27.0044V17.9985H147.938V24.1928H148.079L152.229 17.9985H153.992V27.0044H152.229V20.7768H152.097L147.938 27.0044H146.177Z" fill="white"/>
<path d="M163.696 19.4946H160.86V27.0044H159.081V19.4946H156.245V17.9985H163.696V19.4946Z" fill="white"/>
<path d="M173.271 24.5724C173.028 25.3955 172.505 26.1072 171.791 26.5835C171.078 27.0597 170.219 27.27 169.367 27.1779C168.773 27.1935 168.183 27.0798 167.639 26.8448C167.093 26.6097 166.607 26.2589 166.211 25.8167C165.815 25.3743 165.519 24.8513 165.347 24.2837C165.173 23.7159 165.125 23.1174 165.206 22.5294C165.128 21.9396 165.176 21.3398 165.348 20.7704C165.522 20.2011 165.815 19.6755 166.209 19.2294C166.602 18.7833 167.087 18.4269 167.631 18.1845C168.174 17.9421 168.764 17.8193 169.359 17.8244C171.864 17.8244 173.378 19.5363 173.378 22.3643V22.9845H167.019V23.0841C166.991 23.4147 167.031 23.7474 167.139 24.0611C167.249 24.3747 167.421 24.6623 167.646 24.9053C167.873 25.1483 168.147 25.3413 168.452 25.472C168.756 25.6028 169.085 25.6682 169.418 25.6641C169.842 25.715 170.272 25.6383 170.653 25.4439C171.034 25.2494 171.35 24.9461 171.558 24.5723L173.271 24.5724ZM167.019 21.6701H171.566C171.588 21.368 171.546 21.0645 171.445 20.7792C171.343 20.4938 171.183 20.2329 170.975 20.0133C170.766 19.7936 170.514 19.6199 170.234 19.5035C169.955 19.3871 169.653 19.3304 169.35 19.3371C169.043 19.3329 168.738 19.3904 168.453 19.5062C168.168 19.622 167.909 19.7936 167.693 20.0111C167.475 20.2286 167.303 20.4875 167.187 20.7725C167.072 21.0573 167.015 21.3626 167.019 21.6701Z" fill="white"/>
<path d="M180.805 17.9985H184.866C186.628 17.9985 187.66 18.891 187.66 20.2884C187.663 20.7318 187.513 21.1628 187.237 21.5091C186.96 21.8553 186.573 22.0961 186.139 22.1909V22.3314C186.666 22.3647 187.158 22.5986 187.516 22.985C187.875 23.3714 188.071 23.8806 188.065 24.4076C188.065 25.9788 186.883 27.0042 184.906 27.0042H180.805V17.9985ZM182.568 19.3628V21.6947H184.329C185.403 21.6947 185.917 21.2817 185.917 20.5199C185.917 19.8179 185.469 19.3628 184.525 19.3628H182.568ZM182.568 23.0015V25.6401H184.674C185.725 25.6401 186.288 25.1762 186.288 24.3246C186.288 23.4233 185.652 23.0015 184.452 23.0015H182.568Z" fill="white"/>
</g>
</svg>
