<svg width="201" height="200" viewBox="0 0 201 200" fill="none" xmlns="http://www.w3.org/2000/svg">
<path d="M95.358 106.128C89.326 101.714 83.546 96.9981 77.858 92.1741C72.154 87.3701 66.6 82.3861 61.074 77.3661C55.598 72.2901 50.154 67.1741 44.86 61.8801C39.55 56.6061 34.332 51.2221 29.37 45.5321C28.7346 44.805 28.3801 43.8746 28.3704 42.9091C28.3608 41.9435 28.6966 41.0063 29.3173 40.2666C29.938 39.5269 30.8026 39.0334 31.7552 38.8752C32.7078 38.7171 33.6855 38.9046 34.512 39.4041C40.976 43.3021 47.184 47.5081 53.302 51.8201C59.434 56.1141 65.418 60.5881 71.368 65.1001C77.27 69.6701 83.142 74.2741 88.864 79.0581C94.602 83.8221 100.25 88.6941 105.644 93.8701C107.106 95.28 107.979 97.1923 108.087 99.2208C108.194 101.249 107.527 103.243 106.221 104.799C104.916 106.355 103.068 107.358 101.052 107.605C99.0352 107.851 97.0004 107.324 95.358 106.128Z" fill="#F68E57"/>
<path d="M100.166 55.666V25C141.588 25 175.166 58.578 175.166 100C175.166 141.422 141.588 175 100.166 175C58.744 175 25.166 141.422 25.166 100" stroke="#F68E57" stroke-width="12" stroke-miterlimit="10" stroke-linecap="round" stroke-linejoin="round"/>
</svg>
