<svg width="271" height="78" viewBox="0 0 271 78" fill="none" xmlns="http://www.w3.org/2000/svg">
<mask id="mask0_512_7946" style="mask-type:luminance" maskUnits="userSpaceOnUse" x="0" y="1" width="271" height="76">
<path d="M271 1H0V76.9999H271V1Z" fill="white"/>
</mask>
<g mask="url(#mask0_512_7946)">
<path d="M258.955 2.00146H12.0444C5.94681 2.00146 1.00371 6.92632 1.00371 13.0014V65.0014C1.00371 71.0766 5.94681 76.0014 12.0444 76.0014H258.955C265.052 76.0014 269.995 71.0766 269.995 65.0014V13.0014C269.995 6.92632 265.052 2.00146 258.955 2.00146Z" fill="black" stroke="#252C2C" stroke-width="1.33333"/>
<path d="M41.6867 37.8374L20.325 60.6831C20.325 60.6831 20.325 60.6917 20.325 60.6959C20.979 63.176 23.2264 65.0013 25.8971 65.0013C26.9662 65.0013 27.9641 64.7097 28.8236 64.2027L28.8906 64.1606L52.9356 50.1792L41.6825 37.833L41.6867 37.8374Z" fill="#EA4435"/>
<path d="M63.2982 33.945L63.2773 33.9323L52.8962 27.8691L41.2029 38.3561L52.9381 50.1783L63.2604 44.1743C65.0718 43.1855 66.3002 41.2631 66.3002 39.0491C66.3002 36.8351 65.0885 34.9337 63.294 33.945" fill="#F9BC15"/>
<path d="M20.3221 17.3193C20.1921 17.7968 20.1251 18.2996 20.1251 18.815V59.187C20.1251 59.7068 20.1921 60.2054 20.3221 60.6828L42.4133 38.4201L20.3179 17.3193H20.3221Z" fill="#547DBF"/>
<path d="M41.8418 39.0031L52.8979 27.8653L28.8823 13.8333C28.0101 13.3052 26.9913 13.001 25.9013 13.001C23.2348 13.001 20.9832 14.8305 20.325 17.3149C20.325 17.3149 20.325 17.3149 20.325 17.3192L41.846 39.0031H41.8418Z" fill="#33A851"/>
<path d="M136.867 41.735C132.136 41.735 128.274 45.402 128.274 50.4572C128.274 55.5122 132.131 59.175 136.867 59.175C141.603 59.175 145.46 55.4736 145.46 50.4572C145.46 45.4406 141.603 41.735 136.867 41.735ZM136.867 55.7393C134.272 55.7393 132.035 53.5587 132.035 50.4572C132.035 47.3556 134.272 45.1707 136.867 45.1707C139.462 45.1707 141.696 47.3171 141.696 50.4572C141.696 53.5973 139.458 55.7393 136.867 55.7393ZM118.121 41.735C113.389 41.735 109.528 45.402 109.528 50.4572C109.528 55.5122 113.385 59.175 118.121 59.175C122.857 59.175 126.714 55.4736 126.714 50.4572C126.714 45.4406 122.853 41.735 118.121 41.735ZM118.121 55.7393C115.53 55.7393 113.292 53.5587 113.292 50.4572C113.292 47.3556 115.53 45.1707 118.121 45.1707C120.712 45.1707 122.953 47.3171 122.953 50.4572C122.953 53.5973 120.716 55.7393 118.121 55.7393ZM95.8241 44.4125V48.1095H104.514C104.253 50.1915 103.576 51.708 102.537 52.7663C101.271 54.0557 99.2941 55.4736 95.8241 55.4736C90.474 55.4736 86.2888 51.0827 86.2888 45.6335C86.2888 40.1843 90.4697 35.7932 95.8241 35.7932C98.7095 35.7932 100.817 36.9456 102.373 38.4321L104.935 35.8232C102.76 33.7112 99.8747 32.0918 95.8241 32.0918C88.497 32.0918 82.3351 38.1708 82.3351 45.6335C82.3351 53.0961 88.497 59.175 95.8241 59.175C99.7778 59.175 102.76 57.8513 105.099 55.3752C107.496 52.9332 108.245 49.4976 108.245 46.7216C108.245 45.8648 108.182 45.0722 108.051 44.4125H95.8241ZM187.017 47.2827C186.302 45.3335 184.131 41.735 179.69 41.735C175.248 41.735 171.618 45.2693 171.618 50.4572C171.618 55.3452 175.248 59.175 180.111 59.175C184.035 59.175 186.302 56.7332 187.244 55.3109L184.325 53.3274C183.35 54.7797 182.025 55.7393 180.111 55.7393C178.196 55.7393 176.834 54.8483 175.959 53.1003L187.404 48.2766L187.017 47.2871V47.2827ZM175.345 50.1915C175.248 46.8201 177.907 45.1065 179.821 45.1065C181.314 45.1065 182.579 45.8648 183 46.9572L175.349 50.1959L175.345 50.1915ZM166.037 58.6439H169.797V33.0171H166.037V58.6439ZM159.875 43.6842H159.744C158.904 42.6603 157.279 41.735 155.239 41.735C150.958 41.735 147.038 45.5649 147.038 50.4872C147.038 55.4094 150.962 59.1707 155.239 59.1707C157.284 59.1707 158.904 58.2455 159.744 57.1872H159.875V58.4424C159.875 61.7796 158.126 63.5618 155.303 63.5618C153.002 63.5618 151.572 61.8782 150.992 60.4603L147.715 61.8482C148.653 64.1616 151.152 67.0019 155.303 67.0019C159.711 67.0019 163.442 64.3586 163.442 57.9198V42.2663H159.875V43.6886V43.6842ZM155.563 55.7393C152.969 55.7393 150.798 53.5287 150.798 50.4914C150.798 47.4542 152.969 45.1751 155.563 45.1751C158.159 45.1751 160.135 47.4198 160.135 50.4914C160.135 53.5631 158.125 55.7393 155.563 55.7393ZM204.637 33.0215H195.639V58.6481H199.391V48.9407H204.637C208.801 48.9407 212.889 45.869 212.889 40.9811C212.889 36.093 208.796 33.0215 204.637 33.0215ZM204.733 45.3722H199.391V36.5856H204.733C207.542 36.5856 209.137 38.9547 209.137 40.9767C209.137 42.9987 207.542 45.3678 204.733 45.3678M227.943 41.6879C225.225 41.6879 222.407 42.9089 221.241 45.6077L224.578 47.0258C225.288 45.6077 226.618 45.1451 228.01 45.1451C229.953 45.1451 231.925 46.3317 231.959 48.4394V48.705C231.277 48.311 229.823 47.7155 228.044 47.7155C224.451 47.7155 220.791 49.7246 220.791 53.486C220.791 56.9174 223.741 59.1236 227.038 59.1236C229.566 59.1236 230.954 57.9713 231.828 56.6175H231.959V58.5966H235.585V48.7692C235.585 44.2197 232.253 41.6837 227.947 41.6837M227.492 55.7264C226.259 55.7264 224.543 55.101 224.543 53.5502C224.543 51.5709 226.681 50.817 228.527 50.817C230.175 50.817 230.954 51.1812 231.959 51.6738C231.669 54.0471 229.662 55.7308 227.492 55.7308M248.792 42.2448L244.486 53.3574H244.355L239.888 42.2448H235.841L242.542 57.7742L238.722 66.4106H242.638L252.965 42.2448H248.789H248.792ZM214.966 58.6395H218.723V33.0129H214.966V58.6395Z" fill="white"/>
<path d="M86.415 23.4809C85.4182 22.8983 84.6317 22.0972 84.0596 21.0734C83.4876 20.0495 83.2015 18.9229 83.2015 17.6848C83.2015 16.4467 83.4876 15.32 84.0596 14.2962C84.6317 13.2723 85.4182 12.4712 86.415 11.8886C87.4118 11.306 88.5181 11.0146 89.7337 11.0146C91.6138 11.0146 93.1617 11.7087 94.3729 13.1009L93.0271 14.4375C92.5938 13.9149 92.1143 13.5208 91.5843 13.2594C91.0544 12.9981 90.4445 12.8653 89.7546 12.8653C88.9008 12.8653 88.127 13.0624 87.4245 13.4608C86.7263 13.8592 86.1711 14.4247 85.7589 15.1573C85.3509 15.8897 85.1448 16.7294 85.1448 17.6804C85.1448 18.6316 85.3509 19.4711 85.7589 20.2037C86.1669 20.9363 86.7221 21.5018 87.4245 21.8959C88.1227 22.2943 88.9008 22.4957 89.7546 22.4957C91.1805 22.4957 92.375 21.8959 93.3425 20.6921L94.7263 22.0459C94.1206 22.7698 93.3887 23.3353 92.5391 23.7422C91.6853 24.145 90.7516 24.3506 89.7379 24.3506C88.5223 24.3506 87.416 24.0593 86.4192 23.4767L86.415 23.4809Z" fill="white"/>
<path d="M96.8756 11.3017H98.8019V17.492H98.9072L103.9 11.3017H106.318V11.4088L101.031 17.7919L106.6 23.9608V24.0679H104.077L98.9114 18.2159H98.8062V24.0679H96.8798V11.2974L96.8756 11.3017Z" fill="white"/>
<path d="M114.718 11.3018L119.463 24.0723H117.343L116.186 20.7908H111.071L109.915 24.0723H107.795L112.523 11.3018H114.718ZM115.559 18.9701L114.159 15.0545L113.688 13.5937H113.582L113.111 15.0545L111.711 18.9701H115.564H115.559Z" fill="white"/>
<path d="M126.714 18.3829C125.931 19.0855 124.968 19.4368 123.824 19.4368C123.067 19.4368 122.381 19.2782 121.767 18.9655C121.153 18.6527 120.674 18.1945 120.325 17.6032C119.976 17.0077 119.799 16.3094 119.799 15.4997V11.3101H121.742V15.1613C121.742 15.9325 121.965 16.5322 122.407 16.952C122.848 17.3762 123.446 17.5861 124.194 17.5861C125.208 17.5861 126.049 17.1833 126.718 16.3738V11.3101H128.628V24.0806H126.718V18.3914L126.714 18.3829Z" fill="white"/>
<path d="M137.233 11.3018L141.978 24.0722H139.858L138.701 20.7908H133.587L132.43 24.0722H130.31L135.038 11.3018H137.233ZM138.075 18.9701L136.674 15.0545L136.203 13.5937H136.098L135.626 15.0545L134.226 18.9701H138.079H138.075Z" fill="white"/>
<path d="M145.238 13.1567H141.717V11.3018H150.664V13.1567H147.16V24.0723H145.233V13.1567H145.238Z" fill="white"/>
<path d="M152.662 11.3018H154.587V15.8513H157.251C158.032 15.8513 158.756 16.0142 159.42 16.344C160.086 16.6695 160.616 17.145 161.015 17.7705C161.411 18.396 161.608 19.1243 161.608 19.9554C161.608 20.7864 161.411 21.5147 161.015 22.1402C160.619 22.7657 160.086 23.2412 159.42 23.5754C158.756 23.9094 158.032 24.0765 157.251 24.0765H152.662V11.3018ZM157.389 22.2344C157.844 22.2344 158.247 22.1273 158.597 21.9131C158.946 21.699 159.214 21.4163 159.399 21.065C159.584 20.7137 159.681 20.3409 159.681 19.9511C159.681 19.5612 159.589 19.1886 159.399 18.8373C159.214 18.486 158.946 18.2033 158.597 17.9805C158.247 17.762 157.844 17.6507 157.389 17.6507H154.587V22.2344H157.389Z" fill="white"/>
<path d="M167.812 11.3018H169.721V18.366L169.616 20.8293H169.721L175.34 11.306H177.528V24.0765H175.619V16.8366L175.724 14.3734H175.619L169.911 24.0765H167.808V11.306L167.812 11.3018Z" fill="white"/>
<path d="M181.301 23.5369C180.515 22.9885 179.971 22.1831 179.682 21.1121L181.448 20.3966C181.599 21.0607 181.894 21.5876 182.332 21.9646C182.768 22.3459 183.286 22.5344 183.88 22.5344C184.522 22.5344 185.069 22.3288 185.524 21.9175C185.978 21.5062 186.206 21.0007 186.206 20.3924C186.206 19.9982 186.096 19.6427 185.873 19.3129C185.65 18.9872 185.347 18.7259 184.964 18.5374C184.577 18.349 184.161 18.2504 183.702 18.2504H182.668V16.5368H183.598C184.229 16.5368 184.754 16.3612 185.174 16.0099C185.596 15.6586 185.805 15.1874 185.805 14.5919C185.805 14.0693 185.612 13.6366 185.221 13.2896C184.83 12.9469 184.342 12.7712 183.758 12.7712C183.231 12.7712 182.79 12.934 182.428 13.251C182.067 13.5723 181.814 13.9536 181.675 14.3906L179.976 13.6751C180.22 12.9726 180.665 12.3514 181.317 11.8116C181.966 11.2718 182.785 11.002 183.779 11.002C184.536 11.002 185.212 11.1519 185.801 11.4561C186.391 11.7602 186.853 12.1758 187.186 12.7027C187.517 13.2339 187.686 13.8294 187.686 14.4934C187.686 15.7315 187.156 16.6439 186.091 17.2394V17.3465C186.689 17.6207 187.172 18.0191 187.547 18.5417C187.92 19.0643 188.106 19.7027 188.106 20.4524C188.106 21.202 187.92 21.836 187.555 22.4315C187.189 23.027 186.68 23.494 186.042 23.8324C185.397 24.1708 184.682 24.3422 183.887 24.3422C182.954 24.3422 182.091 24.068 181.305 23.5196L181.301 23.5369Z" fill="white"/>
</g>
</svg>
