<svg width="127" height="132" viewBox="0 0 127 132" fill="none" xmlns="http://www.w3.org/2000/svg">
<g clip-path="url(#clip0_512_8946)">
<path d="M75.2522 115.848C75.2522 104.484 75.2322 93.1205 75.2223 81.7465C75.2223 79.8775 75.2123 78.0185 75.2223 76.1495C75.2322 72.5414 78.3615 69.593 82.0506 70.6024C84.4101 71.2521 85.9597 73.3909 86.0197 75.7997C86.0297 76.2694 86.0197 76.7392 86.0197 77.2089V85.8443C86.0197 91.9811 86.0297 98.1178 86.0397 104.255C86.0397 106.184 89.039 106.184 89.039 104.255C89.039 98.6475 89.039 93.0305 89.029 87.4235C89.029 84.1852 89.029 80.9469 89.029 77.7086C89.029 74.6503 88.7091 71.7218 86.2097 69.543C82.0007 65.8549 75.1923 67.2742 72.9428 72.4514C72.093 74.3904 72.233 76.4293 72.233 78.4882C72.233 85.3046 72.243 92.121 72.253 98.9374C72.253 104.574 72.253 110.211 72.263 115.848C72.263 117.777 75.2622 117.777 75.2622 115.848H75.2522Z" fill="#FEFEFE"/>
<path d="M66.5643 127.972C64.0349 124.534 61.5155 121.096 58.9861 117.647C57.7264 115.928 56.4567 114.209 55.197 112.49C54.2172 111.161 53.1175 109.892 52.9275 108.182C52.5976 105.264 54.7771 102.535 57.6964 102.206C59.676 101.986 61.5455 102.935 62.6952 104.414C66.8643 109.832 70.8033 115.459 74.8524 120.966C76.372 123.035 77.8916 125.113 79.4113 127.182C80.541 128.722 83.1504 127.232 82.0007 125.673C77.8916 120.066 73.7726 114.469 69.6636 108.862C68.1639 106.823 66.6943 104.764 65.1747 102.745C63.2351 100.177 60.1958 98.7974 56.9766 99.2972C53.7574 99.7969 50.988 102.296 50.1782 105.484C49.0185 110.071 52.1477 113.35 54.6571 116.778C57.7664 121.016 60.8757 125.243 63.9849 129.481C65.1147 131.02 67.724 129.531 66.5743 127.972H66.5643Z" fill="#FEFEFE"/>
<path d="M123.961 110.322C124.021 116.948 122.271 123.395 118.782 129.032C117.762 130.681 120.352 132.18 121.371 130.541C125.131 124.484 127.03 117.438 126.96 110.322C126.94 108.393 123.941 108.393 123.961 110.322Z" fill="#FEFEFE"/>
<path d="M88.969 104.944C88.969 103.265 88.969 101.576 88.969 99.8968C88.969 97.9478 88.7491 96.0788 90.0188 94.4997C91.6584 92.4807 94.8476 92.0909 96.8571 93.81C97.8869 94.6895 98.5367 95.9289 98.5967 97.2282C98.6267 97.8479 98.5967 98.4675 98.5967 99.0872C98.5967 101.036 98.5967 102.985 98.5967 104.934C98.5967 106.883 101.596 106.863 101.596 104.934C101.596 103.005 101.596 101.196 101.596 99.3271C101.596 98.5975 101.626 97.8679 101.586 97.1382C101.466 95.2393 100.706 93.4302 99.3665 92.0609C96.7672 89.3924 92.3482 88.9126 89.2989 91.1214C87.7793 92.2209 86.6396 93.79 86.1897 95.629C85.9597 96.5785 85.9597 97.538 85.9597 98.5075C85.9597 100.646 85.9597 102.795 85.9597 104.934C85.9597 106.863 88.959 106.863 88.959 104.934L88.969 104.944Z" fill="#FEFEFE"/>
<path d="M101.626 107.803C101.626 106.124 101.626 104.435 101.626 102.756C101.626 100.807 101.406 98.9377 102.676 97.3585C104.315 95.3396 107.505 94.9498 109.514 96.6689C110.544 97.5484 111.194 98.7878 111.254 100.087C111.284 100.707 111.254 101.326 111.254 101.946C111.254 103.895 111.254 105.844 111.254 107.793C111.254 109.742 114.253 109.722 114.253 107.793C114.253 105.864 114.253 104.055 114.253 102.186C114.253 101.456 114.283 100.727 114.243 99.9971C114.123 98.0981 113.363 96.2891 112.024 94.9198C109.424 92.2512 105.005 91.7715 101.956 93.9803C100.436 95.0797 99.2965 96.6489 98.8466 98.4879C98.6167 99.4374 98.6167 100.397 98.6167 101.366C98.6167 103.505 98.6167 105.654 98.6167 107.793C98.6167 109.722 101.616 109.722 101.616 107.793L101.626 107.803Z" fill="#FEFEFE"/>
<path d="M114.353 109.642C114.353 107.963 114.353 106.274 114.353 104.595C114.353 102.646 114.133 100.777 115.403 99.1974C117.042 97.1785 120.232 96.7887 122.241 98.5078C123.271 99.3873 123.921 100.627 123.981 101.926C124.011 102.546 123.981 103.165 123.981 103.785C123.981 105.734 123.981 107.683 123.981 109.632C123.981 111.581 126.98 111.561 126.98 109.632C126.98 107.703 126.98 105.894 126.98 104.025C126.98 103.295 127.01 102.566 126.97 101.836C126.85 99.937 126.09 98.128 124.751 96.7587C122.151 94.0901 117.732 93.6104 114.683 95.8192C113.163 96.9186 112.024 98.4878 111.574 100.327C111.344 101.276 111.344 102.236 111.344 103.205C111.344 105.344 111.344 107.493 111.344 109.632C111.344 111.561 114.343 111.561 114.343 109.632L114.353 109.642Z" fill="#FEFEFE"/>
<path d="M24.3543 91.8113V13.6028C24.3543 8.8553 27.0936 4.57757 31.8525 3.34822C34.152 2.74854 36.8413 3.03839 39.2008 3.03839H79.7512C80.421 3.03839 81.0909 3.03839 81.7507 3.03839C84.94 3.07837 87.9792 4.54759 89.8588 7.1562C91.6084 9.58492 91.7583 12.2435 91.7583 15.062V89.8124C91.7583 91.7413 94.7576 91.7413 94.7576 89.8124V17.6506C94.7576 16.1115 94.7776 14.5723 94.7576 13.0431C94.6677 5.89687 88.909 0.129931 81.7607 0.0399788C74.6824 -0.0499735 67.6141 0.0399788 60.5457 0.0399788H35.1117C29.773 0.0399788 24.7842 2.61861 22.5247 7.64594C21.385 10.1846 21.355 12.7332 21.355 15.4218V91.8213C21.355 93.7503 24.3543 93.7503 24.3543 91.8213V91.8113Z" fill="#FEFEFE"/>
<path d="M59.7661 122.785H47.339C45.4095 122.785 45.4095 125.783 47.339 125.783H59.7661C61.6956 125.783 61.6956 122.785 59.7661 122.785Z" fill="#FEFEFE"/>
<path d="M23.3947 17.4506H47.0291C59.5761 17.4506 72.1232 17.4506 84.6602 17.4506H93.2482C95.1777 17.4506 95.1777 14.4521 93.2482 14.4521H69.6138C57.0667 14.4521 44.5197 14.4521 31.9826 14.4521H23.3947C21.4651 14.4521 21.4651 17.4506 23.3947 17.4506Z" fill="#FEFEFE"/>
<path d="M38.391 108.283H50.4782C52.4077 108.283 52.4077 105.284 50.4782 105.284H38.391C36.4615 105.284 36.4615 108.283 38.391 108.283Z" fill="#FEFEFE"/>
<path d="M66.1144 108.283H72.163C72.9428 108.283 73.7027 107.593 73.6627 106.783C73.6227 105.974 73.0028 105.284 72.163 105.284H66.1144C65.3346 105.284 64.5748 105.974 64.6148 106.783C64.6548 107.593 65.2746 108.283 66.1144 108.283Z" fill="#FEFEFE"/>
<path d="M69.5138 10.4047C71.4434 10.4047 71.4434 7.40625 69.5138 7.40625C67.5843 7.40625 67.5843 10.4047 69.5138 10.4047Z" fill="#FEFEFE"/>
<path d="M45.7694 10.4047H61.9056C63.8352 10.4047 63.8352 7.40625 61.9056 7.40625H45.7694C43.8399 7.40625 43.8399 10.4047 45.7694 10.4047Z" fill="#FEFEFE"/>
<path d="M15.1864 129.771C13.2069 124.424 11.2173 119.077 9.23781 113.73C8.28803 111.161 7.23828 108.693 7.21829 105.894C7.19829 103.425 7.21829 100.967 7.21829 98.498V88.1634C7.21829 84.5354 7.1783 80.6974 8.418 77.2492C8.94788 75.76 9.92765 74.3208 10.6475 72.9215L15.3964 63.7264C18.0657 58.5491 20.7351 53.3819 23.4045 48.2046C24.2843 46.4955 21.7049 44.9763 20.8151 46.6954C15.8662 56.2903 10.7275 65.8053 5.95858 75.4902C5.10878 77.2192 4.82885 79.2981 4.55891 81.1971C4.30897 82.9662 4.21899 84.7352 4.21899 86.5143V95.7894C4.21899 98.8977 4.21899 102.006 4.21899 105.114C4.21899 107.763 4.74887 110.222 5.66865 112.69C7.87813 118.647 10.0876 124.614 12.3071 130.571C12.9769 132.36 15.8762 131.59 15.1964 129.771H15.1864Z" fill="#FEFEFE"/>
<path d="M47.4689 130.921C48.1987 127.103 47.099 122.785 45.8493 119.217C45.1494 117.218 44.2996 115.259 43.3398 113.38C42.2301 111.201 40.7904 109.182 39.9806 106.863C39.1308 104.415 39.1208 102.056 39.1008 99.4973C39.0809 96.9386 39.0609 94.26 39.0309 91.6414L38.591 92.7009C41.2603 89.4326 43.6898 85.8945 45.0994 81.8866C46.0092 79.308 46.5291 76.2096 45.2594 73.651C43.9897 71.0923 40.8304 69.773 38.0811 69.843C36.4615 69.883 35.8816 70.8524 35.0818 72.0618C30.053 79.6978 25.554 87.7235 20.9251 95.5993C19.4455 98.128 17.9558 100.657 16.4862 103.195C15.5164 104.864 18.1058 106.374 19.0756 104.704C24.3743 95.5893 29.6931 86.4742 35.2018 77.4889C36.2215 75.8198 37.2513 74.1607 38.361 72.5515C38.1711 72.6715 38.591 72.2217 38.361 72.5515C37.7812 72.9113 37.6612 72.7514 38.0811 72.8314C38.9509 73.0013 39.7607 72.9713 40.6205 73.3211C42.1301 73.9408 42.9399 75.1302 43.0099 76.7393C43.2299 81.4568 39.8607 86.3142 37.0813 89.8224C36.6014 90.4221 36.1215 90.8518 36.0316 91.6414C35.9416 92.431 36.0416 93.3105 36.0516 94.1001C36.0616 95.7392 36.0816 97.3684 36.0916 99.0075C36.1215 102.156 36.1116 105.094 37.2313 108.083C38.421 111.281 40.4605 114.09 41.8402 117.208C42.86 119.507 43.6598 121.915 44.1596 124.374C44.4596 125.833 44.6395 127.312 44.6295 128.802C44.6295 129.211 44.5995 129.611 44.5696 130.021C44.5396 130.611 44.6295 129.771 44.5596 130.141C44.1996 132.03 47.089 132.83 47.4489 130.941L47.4689 130.921Z" fill="#FEFEFE"/>
<path d="M75.4622 48.3343C75.3922 55.7504 70.7533 62.6367 63.6949 65.1654C56.6366 67.694 48.5085 65.5052 43.6697 59.6683C38.8308 53.8314 38.3609 45.4858 42.19 39.1092C46.0191 32.7326 53.6373 29.2944 60.9356 30.7437C69.3236 32.4128 75.3822 39.8088 75.4622 48.3343C75.4822 50.2633 78.4815 50.2633 78.4615 48.3343C78.3815 39.579 72.8928 31.6931 64.6547 28.6747C56.4167 25.6563 46.9489 28.2949 41.4502 35.0114C35.9515 41.7278 35.0817 51.5426 39.6106 59.0786C44.1496 66.6346 53.1074 70.5226 61.7354 68.8235C71.4131 66.9045 78.3715 58.1091 78.4615 48.3443C78.4815 46.4153 75.4822 46.4153 75.4622 48.3443V48.3343Z" fill="#F68E57"/>
<path d="M61.8854 83.9956H53.1675C50.5999 83.9956 48.5186 86.0741 48.5186 88.6381C48.5186 91.2021 50.5999 93.2807 53.1675 93.2807H61.8854C64.4529 93.2807 66.5343 91.2021 66.5343 88.6381C66.5343 86.0741 64.4529 83.9956 61.8854 83.9956Z" fill="#F68E57"/>
<path d="M9.18801 64.0659V27.1855C9.18801 25.2565 6.18872 25.2565 6.18872 27.1855V64.0559C6.18872 65.9849 9.18801 65.9849 9.18801 64.0559V64.0659Z" fill="#F68E57"/>
<path d="M2.55951 33.6024C4.719 31.4036 6.87849 29.1947 9.03798 26.9959H6.91848C9.07797 29.1248 11.2375 31.2536 13.3969 33.3725C14.7766 34.7318 16.8961 32.6129 15.5164 31.2536C13.357 29.1248 11.1975 26.9959 9.03798 24.877C8.46811 24.3173 7.48834 24.2973 6.91848 24.877C4.75899 27.0758 2.5995 29.2847 0.440009 31.4835C-0.909672 32.8628 1.20983 34.9817 2.55951 33.6024Z" fill="#F68E57"/>
<path d="M108.304 50.1836V13.3032C108.304 11.3742 105.305 11.3742 105.305 13.3032V50.1736C105.305 52.1026 108.304 52.1026 108.304 50.1736V50.1836Z" fill="#F68E57"/>
<path d="M101.666 19.7196C103.826 17.5207 105.985 15.3119 108.145 13.1131H106.025C108.185 15.2419 110.344 17.3708 112.504 19.4897C113.883 20.849 116.003 18.7301 114.623 17.3708C112.464 15.2419 110.304 13.1131 108.145 10.9942C107.575 10.4345 106.595 10.4145 106.025 10.9942C103.866 13.193 101.706 15.4019 99.5467 17.6007C98.197 18.98 100.317 21.0988 101.666 19.7196Z" fill="#F68E57"/>
<path fill-rule="evenodd" clip-rule="evenodd" d="M50.2296 35.981H60.1583C61.9687 35.981 63.7049 36.6759 64.985 37.913C66.2651 39.1501 66.9843 40.828 66.9843 42.5775C66.9843 44.327 66.2651 46.0048 64.985 47.2419C63.7049 48.479 61.9687 49.174 60.1583 49.174H52.7118V50.6132H62.144V53.0119H52.7118V59.9682H50.2296V53.0119H48.9885V50.6132H50.2296V49.174H48.9885V46.7752H50.2296V35.981ZM52.7118 38.3797H60.1583C61.3103 38.3797 62.4152 38.8219 63.2298 39.6092C64.0445 40.3964 64.5021 41.4641 64.5021 42.5775C64.5021 43.6908 64.0445 44.7585 63.2298 45.5457C62.4152 46.333 61.3103 46.7752 60.1583 46.7752H52.7118V38.3797Z" fill="#F68E57"/>
</g>
<defs>
<clipPath id="clip0_512_8946">
<rect width="127" height="132" fill="white"/>
</clipPath>
</defs>
</svg>
