<svg xmlns="http://www.w3.org/2000/svg" width="173" height="148" viewBox="0 0 173 148" fill="none"><g clip-path="url(#clip0_1714_5050)"><path d="M130.345 0.187622C130.102 0.294876 129.656 0.60321 129.331 0.898132C128.331 1.78291 124.25 6.71625 118.505 13.942C116.6 16.3416 114.789 18.5402 114.478 18.8217C113.626 19.5858 112.829 19.8673 111.761 19.8137C110.95 19.7735 110.734 19.6931 109.193 18.8083C106.409 17.2264 104.814 16.5159 102.111 15.6311C97.8671 14.2637 93.2853 13.5934 86.987 13.446C77.9586 13.2449 68.3354 14.2503 55.2118 16.7706C50.1029 17.7492 49.5487 17.6152 46.1293 14.4916C41.3447 10.1481 35.9655 5.77785 34.4518 5.02711C34.0869 4.83943 33.4516 4.61154 33.0597 4.5311C31.5189 4.23618 29.9105 5.10754 27.9102 7.33292C26.2343 9.19632 25.2476 10.4699 23.5582 13.0036C18.5033 20.551 13.2863 29.3318 8.27201 38.7427C3.6767 47.376 0.284273 54.6688 0.0545078 56.4115C-0.134711 57.8326 0.527555 58.7173 2.39271 59.5887C4.56873 60.5941 5.5824 61.1572 9.4749 63.5166C15.7867 67.3239 16.6111 67.7663 19.3548 68.7181C20.6794 69.1739 21.9093 69.6431 22.0985 69.7637C22.5851 70.0854 22.7472 70.4876 23.3554 72.8605C24.6529 77.9412 24.8151 79.0941 24.3421 80.113C24.2069 80.4079 23.0716 81.8557 21.8147 83.3304C18.1114 87.6739 17.5302 88.438 16.7328 90.0199C15.8948 91.6688 15.638 92.5804 15.5704 94.055C15.5029 95.6905 15.6786 96.6289 16.2868 97.8355C16.895 99.0152 17.6248 99.8329 18.7466 100.597C20.0847 101.509 21.3687 101.911 23.1122 101.991C25.2476 102.085 27.0993 101.509 28.4779 100.342C29.0726 99.8463 34.3572 94.2963 40.2905 87.942C45.3319 82.5528 45.3724 82.4858 45.9941 81.2525C46.5212 80.1934 46.5618 80.046 46.6023 78.7456C46.6564 77.6195 46.6023 77.1905 46.3726 76.4532C45.5887 73.9061 43.5613 71.8416 40.9528 70.9702C40.3851 70.7826 39.8175 70.7155 38.5876 70.7155C36.0061 70.7155 34.6545 71.2249 31.7622 73.3162C30.6133 74.1474 30.0592 74.4826 29.9916 74.3619C29.897 74.1876 28.4103 67.3775 27.9913 65.1655C27.7345 63.8249 27.7345 63.7445 27.9643 63.0206C28.0994 62.605 30.5187 58.1945 33.3435 53.221C38.8173 43.5822 42.6828 36.6514 44.7372 32.8441C47.9269 26.892 48.2783 26.3289 49.5758 25.1358C50.2245 24.5326 51.5896 23.822 52.779 23.4735C54.1981 23.0579 67.484 21.0202 72.5118 20.4572C77.1476 19.921 79.4588 19.7869 84.0676 19.7869C86.8519 19.7735 89.3522 19.8405 90.2848 19.9344C99.1916 20.8728 98.6645 20.8057 98.6645 21.1141C98.6645 21.3956 98.4888 21.4224 94.1773 22.0257C91.704 22.3742 88.4332 22.7764 86.9059 22.9239C82.3782 23.3797 80.1211 23.9293 77.6612 25.1492C75.8501 26.0608 75.0662 26.6239 72.8497 28.6079C72.3766 29.0369 70.6331 30.4445 68.9977 31.7449C65.3215 34.6673 64.1456 35.8068 63.5104 37.067C63.1049 37.8981 63.0508 38.1126 63.0508 39.0778C63.0508 40.0028 63.1184 40.2576 63.4563 40.9412C63.9699 41.9467 65.0241 43.0057 66.4162 43.9039C69.687 46.022 72.6199 46.8934 75.8907 46.746C77.918 46.6521 79.5534 46.2499 82.0268 45.2311C85.4327 43.8369 86.2166 43.609 89.6766 43.046C93.5421 42.4025 98.1104 41.7188 102.381 41.1557C105.801 40.6865 106.477 40.6999 107.612 41.2094C108.301 41.5177 109.436 42.4695 127.858 58.4358C138.198 67.3909 150.713 78.3032 151.227 78.826C153.633 81.2659 153.957 83.8666 152.213 86.7086C151.294 88.2235 149.645 89.6713 147.186 91.146C145.807 91.9771 144.82 92.2989 143.955 92.1782C142.685 92.0173 141.86 91.4409 138.063 88.1297C131.48 82.392 124.56 76.547 123.668 75.9572C122.06 74.8847 120.925 74.7239 119.479 75.3539C118.397 75.8365 117.857 76.5604 117.857 77.5525C117.857 78.4239 118.532 79.5365 119.979 81.0514C120.33 81.4268 124.56 85.0329 129.386 89.0681C134.4 93.2775 138.265 96.6021 138.455 96.897C138.995 97.7282 139.117 98.3181 139.036 99.7257C138.941 101.442 138.657 102.46 137.792 104.23C136.927 106.026 135.697 107.756 134.346 109.137C133.102 110.397 132.643 110.651 131.575 110.651C130.886 110.665 130.629 110.584 129.872 110.169C129.372 109.887 124.331 105.973 118.654 101.455C112.978 96.9507 108.125 93.1166 107.869 92.9423C107.477 92.6742 107.247 92.634 106.179 92.634C103.963 92.634 103.206 93.3177 103.192 95.3152C103.192 96.4949 103.422 97.0579 104.26 97.9025C105.314 98.9749 115.924 107.407 122.06 112.046C124.939 114.217 125.547 114.821 126.142 116.067C126.561 116.939 126.574 117.006 126.561 118.775C126.547 121.885 125.763 124.071 124.074 125.746C121.898 127.905 118.749 128.374 115.978 126.953C115.072 126.484 115.546 126.859 108.044 120.706C100.922 114.874 96.529 111.348 95.6911 110.772C94.1638 109.74 91.5553 108.775 90.6768 108.922C89.528 109.123 88.8116 110.182 88.7981 111.71C88.7981 112.863 89.1225 113.587 90.0686 114.445C90.447 114.794 95.5019 118.856 101.287 123.467C107.071 128.066 111.923 132.02 112.059 132.248C112.532 133.012 112.302 134.406 111.41 136.096C110.261 138.267 107.855 140.117 104.476 141.404C103.354 141.833 101.895 141.873 100.841 141.512C100.327 141.337 97.8806 139.675 92.2581 135.693C83.4054 129.42 83.6757 129.621 80.3238 126.98L77.864 125.036L78.1343 124.701C78.2694 124.513 79.4047 123.266 80.6482 121.912C84.8921 117.274 85.5408 116.081 85.3787 113.145C85.1894 109.633 82.7972 106.697 79.4723 105.892C77.5666 105.437 75.2554 105.785 73.593 106.777C72.4983 107.434 72.4037 107.528 70.3628 109.995C67.9976 112.863 65.3215 115.96 60.7126 121.175C58.6042 123.561 56.6715 125.827 56.4282 126.216C55.1442 128.213 55.3064 130.666 56.9012 133.16C58.3339 135.425 60.9289 136.873 63.5509 136.873C64.9565 136.873 65.8215 136.672 67.1326 136.055C68.4165 135.452 69.6465 134.366 72.1198 131.631C72.9848 130.68 73.7282 129.902 73.7822 129.902C73.8228 129.902 75.5933 131.176 77.7153 132.744C86.7572 139.407 89.0549 141.096 92.5149 143.549C96.3669 146.297 97.5427 146.954 99.543 147.531C103.746 148.724 108.463 147.437 112.694 143.925C115.059 141.967 116.789 139.393 117.789 136.337C118.411 134.433 118.762 134.152 120.749 133.937C123.817 133.589 126.074 132.543 128.115 130.546C130.818 127.891 132.21 124.835 132.791 120.25C133.143 117.502 133.373 116.979 134.481 116.429C140.225 113.534 143.482 108.922 144.969 101.509C145.226 100.235 145.523 99.0152 145.631 98.8007C145.888 98.3047 146.253 98.117 147.942 97.5807C154.281 95.5967 158.16 91.1325 159.363 84.4565C160.201 79.8985 158.931 76.7213 155.254 74.1876C154.335 73.5575 153.281 72.6996 152.065 71.6405C151.916 71.5065 152.051 71.2518 152.849 70.1659C155.417 66.6133 157.268 62.042 158.201 56.9746C158.944 52.9394 159.174 52.2691 160.323 50.7409C160.661 50.2985 162.418 48.3681 164.229 46.451C172.217 38.0188 173 37.0804 173 35.9945C173 35.4181 172.757 34.7478 172.365 34.2115C172.095 33.863 137.144 3.86081 134.021 1.30031C132.602 0.1474 131.332 -0.241364 130.345 0.187622ZM132.629 8.52603C133.089 8.76733 139.82 14.1162 143.807 17.4141C147.348 20.3499 150.483 23.0713 156.782 28.6883C159.796 31.3829 162.945 34.1445 163.783 34.8416C165.297 36.0749 165.31 36.1018 165.067 36.3699C164.756 36.7318 159.647 42.2818 157.12 44.9898C156.079 46.1159 155.187 47.0141 155.133 47.0141C155.092 47.0007 147.551 40.834 138.373 33.3268C129.21 25.8061 121.682 19.6394 121.655 19.626C121.601 19.5724 123.276 17.5749 128.047 11.9579C131.129 8.35176 131.156 8.31154 131.67 8.31154C131.967 8.31154 132.386 8.40538 132.629 8.52603ZM33.6408 11.5557C33.9787 11.8641 35.6952 13.446 37.4387 15.0681C39.1822 16.7036 41.169 18.4999 41.8448 19.063C42.6287 19.7199 43.1829 20.3097 43.3856 20.6985C43.6965 21.2615 43.71 21.342 43.5478 21.9318C43.4532 22.2804 43.0342 23.0847 42.6152 23.7148C42.1962 24.3449 37.8442 32.1068 32.9515 40.9547C28.0454 49.8025 23.3014 58.3554 22.4094 59.9641C20.828 62.8061 20.774 62.8865 20.5037 62.6989C20.3415 62.5916 17.3545 60.8623 13.854 58.8514C10.3534 56.8405 7.43404 55.138 7.33943 55.071C7.21779 54.9771 7.86654 53.5829 9.82631 49.6952C18.206 33.0586 24.8827 21.8112 32.4515 11.6228C32.7083 11.2876 32.938 11.0061 32.9651 10.9927C32.9921 10.9927 33.3029 11.2474 33.6408 11.5557Z" fill="#F68E57"></path><path d="M50.1161 82.9818C49.0078 83.1829 47.7644 83.6521 46.9399 84.1749C46.4669 84.4833 45.1424 85.73 43.5881 87.3521C32.8702 98.5057 28.5317 103.935 27.6396 107.313C27.3558 108.359 27.3558 110.423 27.6396 111.456C28.2343 113.668 29.9778 115.759 32.0457 116.751C32.735 117.073 33.6406 117.381 34.3434 117.515L35.5057 117.743L36.9789 117.019L38.4521 116.295L42.3581 111.938C49.9404 103.493 57.8876 94.4304 58.3201 93.7735C58.9283 92.8351 59.1986 91.8564 59.1986 90.5561C59.1986 89.2021 58.9418 88.1967 58.2525 86.8829C57.3335 85.1267 55.7656 83.7728 54.0627 83.2365C53.076 82.9282 51.1028 82.7941 50.1161 82.9818Z" fill="#F68E57"></path><path d="M62.8482 95.1141C61.3345 95.3956 59.8478 96.1865 58.5097 97.4333C56.8338 98.9884 42.8857 114.579 41.1692 116.818C40.0474 118.279 39.3311 120.304 39.3311 121.979C39.3446 125.706 42.1829 129.098 45.9267 129.862C48.373 130.358 51.0356 129.326 53.2657 126.993C53.6171 126.645 56.4689 123.36 59.6315 119.714C72.2822 105.075 72.2281 105.142 72.6606 103.359C73.2553 100.879 72.2416 98.184 70.0791 96.5619C68.1329 95.0873 65.7 94.6047 62.8482 95.1141Z" fill="#F68E57"></path></g><defs><clipPath id="clip0_1714_5050"><rect width="173" height="148" fill="white"></rect></clipPath></defs></svg>