<svg xmlns="http://www.w3.org/2000/svg" width="148" height="148" viewBox="0 0 148 148" fill="none"><g clip-path="url(#clip0_1714_5061)"><path d="M15.3115 98.3012C8.82049 82.6303 8.82014 65.3696 15.3115 49.6988C19.0307 40.7197 24.629 32.8813 31.6777 26.6006L52.9336 47.8564V5.27344H10.3502L24.2787 19.2019C1.8238 39.6076 -6.6307 72.7083 5.63141 102.311C10.5794 114.256 18.5784 124.719 28.7642 132.569C38.6395 140.179 50.3739 145.212 62.6988 147.125L64.3058 136.771C42.1827 133.338 23.8672 118.956 15.3115 98.3012Z" fill="#F68E57"></path><path d="M142.329 102.311C149.891 84.0546 149.891 63.9457 142.329 45.6893C137.381 33.744 129.381 23.2812 119.196 15.432C109.321 7.82166 97.5862 2.78815 85.2612 0.87561L83.6543 11.2297C105.777 14.6626 124.092 29.0436 132.648 49.6991C139.14 65.37 139.14 82.6307 132.648 98.3016C128.929 107.281 123.331 115.119 116.282 121.4L95.0265 100.144V142.727H137.609L123.709 128.826C131.712 121.577 138.074 112.583 142.329 102.311Z" fill="#F68E57"></path></g><defs><clipPath id="clip0_1714_5061"><rect width="148" height="148" fill="white"></rect></clipPath></defs></svg>