<svg xmlns="http://www.w3.org/2000/svg" width="130" height="148" viewBox="0 0 130 148" fill="none"><path d="M110.529 28.068C98.3705 15.9273 82.1786 9.25 64.971 9.25C29.4531 9.25 0.551339 38.0406 0.551339 73.4219C0.551339 84.7242 3.51116 95.7664 9.14062 105.508L0 138.75L34.154 129.818C43.5558 134.934 54.1473 137.623 64.942 137.623H64.971C100.46 137.623 130 108.832 130 73.4508C130 56.3094 122.688 40.2086 110.529 28.068ZM64.971 126.812C55.3371 126.812 45.9062 124.239 37.6942 119.383L35.75 118.227L15.4955 123.516L20.8929 103.831L19.6161 101.808C14.2478 93.3094 11.433 83.5102 11.433 73.4219C11.433 44.0242 35.4598 20.0898 65 20.0898C79.3058 20.0898 92.7411 25.6398 102.839 35.7281C112.938 45.8164 119.147 59.2 119.118 73.4508C119.118 102.877 94.4821 126.812 64.971 126.812ZM94.3371 86.8633C92.7411 86.0539 84.8192 82.1805 83.3393 81.6602C81.8594 81.1109 80.7857 80.8508 79.7121 82.4695C78.6384 84.0883 75.5625 87.6727 74.6049 88.7711C73.6763 89.8406 72.7188 89.9852 71.1228 89.1758C61.6629 84.4641 55.4531 80.7641 49.2143 70.0977C47.5603 67.2648 50.8683 67.4672 53.9442 61.3391C54.4665 60.2695 54.2054 59.3445 53.7991 58.5352C53.3929 57.7258 50.1719 49.8344 48.8371 46.6258C47.5312 43.5039 46.1964 43.9375 45.2098 43.8797C44.2812 43.8219 43.2076 43.8219 42.1339 43.8219C41.0603 43.8219 39.3192 44.2266 37.8393 45.8164C36.3594 47.4352 32.2098 51.3086 32.2098 59.2C32.2098 67.0914 37.9844 74.7227 38.7679 75.7922C39.5804 76.8617 50.1138 93.0492 66.2768 100.016C76.4911 104.409 80.4955 104.785 85.6027 104.034C88.7076 103.571 95.1205 100.16 96.4554 96.4023C97.7902 92.6445 97.7902 89.4359 97.3839 88.7711C97.0067 88.0484 95.933 87.6438 94.3371 86.8633Z" fill="#F68E57"></path></svg>